<?xml version="1.0" standalone="no"?>
<!DOCTYPE svg PUBLIC "-//W3C//DTD SVG 20010904//EN"
 "http://www.w3.org/TR/2001/REC-SVG-20010904/DTD/svg10.dtd">
<svg version="1.0" xmlns="http://www.w3.org/2000/svg"
 width="4096.000000pt" height="4096.000000pt" viewBox="0 0 4096.000000 4096.000000"
 preserveAspectRatio="xMidYMid meet">
<metadata>
Created by potrace 1.16, written by Peter Selinger 2001-2019
</metadata>
<g transform="translate(0.000000,4096.000000) scale(0.100000,-0.100000)"
fill="#000000" stroke="none">
<path d="M13252 36955 c-643 -65 -1181 -324 -1807 -868 -238 -208 -639 -630
-846 -892 -438 -554 -855 -1249 -1140 -1902 l-44 -102 -42 2 c-23 1 -39 5 -36
11 4 5 -1 7 -10 3 -9 -3 -18 -1 -21 6 -5 9 -7 9 -12 0 -7 -15 -40 -17 -49 -4
-3 5 5 12 17 14 13 2 4 3 -20 2 -23 -1 -46 -6 -50 -9 -4 -4 -2 -7 3 -6 17 3
55 -12 55 -22 0 -5 -8 -7 -17 -4 -60 17 -76 19 -71 5 2 -8 14 -18 26 -24 12
-5 22 -13 22 -17 0 -11 -28 -10 -32 0 -5 13 -58 24 -58 12 0 -5 8 -10 18 -10
12 0 14 -2 4 -8 -7 -5 -23 -7 -35 -6 -12 1 -28 3 -34 3 -21 2 -14 21 7 21 11
0 20 5 20 10 0 6 -9 10 -20 10 -11 0 -20 -4 -20 -10 0 -13 -103 -13 -133 1
-18 8 -35 7 -71 -5 -59 -20 -56 -20 -56 7 0 17 -2 19 -9 8 -8 -12 -16 -13 -45
-4 -28 9 -34 8 -29 -3 3 -10 -3 -14 -20 -14 -16 0 -26 7 -29 18 -6 22 -38 25
-38 5 0 -9 -7 -13 -17 -11 -10 2 -17 9 -16 15 3 16 -50 11 -63 -6 -7 -9 -18
-11 -29 -7 -10 3 -24 1 -32 -5 -21 -18 -28 -1 -8 21 19 21 7 28 -13 8 -9 -9
-12 -9 -12 1 0 7 -5 9 -11 5 -10 -6 -61 -13 -126 -17 -13 -1 -23 -5 -23 -9 0
-5 -12 -8 -27 -9 -28 0 -28 -1 -5 -11 12 -6 22 -15 22 -20 0 -11 -2 -11 -66
13 -36 14 -67 19 -87 15 l-32 -6 25 20 c24 19 25 19 3 15 -14 -2 -23 1 -23 8
0 19 -45 36 -65 24 -11 -6 -20 -6 -24 1 -3 5 -17 10 -31 10 -34 2 -52 6 -69
16 -9 6 -18 3 -27 -8 -9 -13 -20 -16 -42 -11 -18 3 -33 2 -37 -4 -11 -18 -38
-13 -31 5 5 14 4 15 -8 5 -7 -6 -20 -9 -28 -6 -9 4 -24 -2 -33 -12 -13 -12
-20 -14 -22 -6 -8 22 -34 2 -28 -21 5 -17 4 -18 -4 -6 -10 13 -11 13 -11 0 0
-13 -1 -13 -10 0 -16 24 -12 -98 5 -154 28 -91 91 -164 170 -198 63 -27 904
-344 1075 -405 85 -31 161 -61 169 -68 15 -15 17 -8 -84 -370 -186 -670 -270
-1233 -282 -1890 -24 -1308 321 -2234 996 -2677 87 -57 273 -149 406 -200 320
-124 1581 -514 1818 -562 71 -15 87 -15 180 0 317 49 641 164 912 323 169 100
456 303 584 415 35 30 67 53 71 51 4 -3 3 -26 -3 -52 -16 -75 -12 -353 8 -468
53 -315 179 -571 371 -756 122 -116 202 -160 364 -199 181 -44 611 -39 946 10
444 65 672 173 1014 477 74 66 139 119 145 117 6 -2 25 -38 44 -80 19 -41 71
-139 117 -217 l83 -143 -6 -111 c-11 -207 38 -421 173 -748 l36 -90 -6 -114
c-14 -233 -45 -409 -131 -746 -100 -394 -197 -688 -325 -988 l-67 -158 68 -53
c103 -81 422 -235 539 -261 16 -4 32 -11 36 -16 3 -5 -13 -30 -35 -55 -58 -66
-183 -269 -251 -409 -147 -303 -269 -771 -340 -1310 -91 -695 -117 -1344 -126
-3140 -3 -658 -9 -1212 -15 -1280 -16 -181 -26 -223 -128 -515 -65 -184 -67
-228 -15 -327 19 -37 60 -100 90 -139 29 -39 54 -76 54 -82 0 -6 -29 -33 -65
-62 -124 -99 -251 -261 -295 -377 -49 -130 -35 -313 33 -433 34 -59 157 -194
212 -231 19 -13 35 -31 35 -39 0 -8 -21 -61 -46 -117 -67 -151 -360 -843 -401
-950 l-36 -92 61 -248 c147 -599 206 -1061 253 -1978 6 -126 15 -240 20 -253
5 -13 9 -50 9 -82 0 -32 4 -61 9 -64 5 -4 8 -21 7 -40 -2 -25 0 -33 10 -29 17
6 19 -38 3 -54 -12 -12 -3 -36 11 -28 5 3 9 13 9 23 0 9 2 43 5 75 5 47 4 57
-9 57 -18 0 -19 12 -3 28 9 9 9 12 -1 12 -11 0 -11 3 -1 15 6 8 9 19 5 25 -10
15 2 12 20 -7 14 -13 18 -14 25 -3 12 20 91 23 83 4 -3 -10 5 -16 26 -20 21
-5 31 -12 30 -23 -3 -31 1 -41 17 -41 11 0 14 5 10 16 -12 32 -19 69 -10 61 4
-4 9 -17 11 -29 6 -35 36 -73 61 -74 24 -1 27 8 13 34 -8 15 -4 18 32 17 23 0
48 -4 56 -9 9 -6 16 -4 22 6 5 10 26 15 59 16 33 0 48 -3 44 -10 -4 -5 -1 -14
7 -18 10 -7 10 -11 0 -23 -8 -11 -9 -17 -1 -22 6 -3 7 -11 4 -17 -4 -6 0 -14
7 -19 12 -8 12 -11 -1 -19 -8 -5 -10 -10 -4 -10 6 0 11 -6 12 -12 5 -45 11
-132 16 -258 4 -80 14 -208 22 -285 8 -77 19 -201 25 -275 6 -74 15 -142 20
-150 9 -14 9 22 -6 295 -3 50 -10 182 -15 295 -6 113 -13 219 -15 235 -3 17
-7 89 -10 160 -5 122 -4 129 11 108 9 -13 27 -23 39 -23 16 0 22 -6 21 -18 0
-11 5 -16 14 -13 36 10 94 1 114 -17 38 -35 89 -39 54 -4 -8 8 -9 12 -1 12 6
0 13 -5 15 -10 2 -6 17 -12 33 -14 17 -2 32 -4 34 -5 2 0 -3 -8 -10 -17 -11
-14 -10 -15 11 -12 14 1 25 10 25 18 0 21 36 25 51 6 10 -15 12 -15 18 -1 7
19 102 22 109 3 3 -10 9 -10 26 -1 32 20 53 17 46 -6 -3 -11 -1 -22 4 -26 6
-3 8 0 5 8 -6 18 40 29 55 14 8 -8 11 -6 11 6 0 9 5 17 10 17 6 0 10 -5 10
-11 0 -6 9 -8 20 -4 20 6 25 -4 21 -46 -2 -18 25 -33 40 -23 5 3 9 15 8 27 l0
22 -9 -22 c-11 -28 -24 -30 -17 -3 3 10 0 21 -7 23 -6 2 -8 7 -5 11 3 3 20 1
37 -7 25 -10 29 -16 21 -30 -6 -9 -8 -21 -4 -26 3 -5 -1 -15 -8 -23 -13 -14
-17 -118 -4 -118 4 0 7 -4 7 -10 0 -5 -7 -7 -17 -3 -14 5 -15 1 -9 -36 4 -25
3 -40 -3 -37 -12 8 -22 -48 -16 -98 2 -22 2 -33 -1 -23 -10 31 -26 19 -19 -14
6 -24 4 -30 -6 -24 -9 6 -11 2 -7 -13 3 -12 1 -23 -6 -25 -8 -3 -8 -9 0 -22
11 -20 -3 -95 -19 -95 -4 0 -5 -4 -2 -10 3 -5 2 -17 -3 -27 -6 -9 -6 -29 -1
-45 5 -20 2 -45 -11 -84 -11 -31 -18 -60 -15 -64 3 -5 1 -20 -5 -34 -5 -14 -6
-26 -2 -26 4 0 22 62 40 138 49 203 95 396 142 592 76 321 148 518 259 700
212 349 349 730 430 1190 48 271 65 496 65 855 1 344 -4 424 -45 703 -36 251
-22 373 55 467 19 23 78 75 131 115 114 86 169 146 203 220 40 86 36 154 -21
322 -117 348 -114 558 14 940 32 96 214 572 361 948 47 118 110 280 141 360
54 139 141 363 232 595 85 216 118 303 190 490 40 105 108 278 150 385 43 107
92 237 109 289 17 52 36 96 42 98 7 2 13 -17 17 -50 33 -324 451 -945 1692
-2517 489 -620 619 -815 680 -1026 29 -101 32 -197 10 -293 -19 -78 -54 -141
-138 -246 -115 -144 -154 -238 -144 -351 7 -88 43 -147 176 -288 141 -149 185
-216 206 -309 11 -53 -21 -128 -121 -277 -157 -236 -230 -399 -289 -643 -67
-280 -90 -531 -82 -882 10 -449 75 -744 278 -1272 134 -346 146 -404 239
-1153 43 -338 67 -502 69 -455 0 22 4 141 7 265 4 124 8 326 9 450 1 124 3
226 5 228 1 1 3 5 4 10 3 17 18 32 27 27 5 -4 9 -1 9 5 0 7 -6 10 -14 7 -9 -4
-13 2 -13 19 0 20 3 23 26 19 23 -5 24 -4 5 4 -12 5 -25 15 -29 21 -7 11 -5
11 95 -11 30 -7 64 -13 75 -14 11 -1 56 -9 100 -18 135 -27 305 -56 400 -67
49 -6 91 -13 92 -14 2 -1 -35 -155 -82 -342 -47 -186 -96 -384 -109 -439 -13
-55 -43 -172 -65 -260 -57 -215 -54 -205 -38 -175 26 45 155 498 188 657 7 35
17 63 21 63 4 0 8 13 8 30 0 16 7 55 16 87 17 62 30 118 40 170 4 18 10 33 13
33 4 0 8 16 9 37 2 20 6 41 9 47 4 6 9 26 13 46 l6 35 109 -4 c61 -2 115 -7
120 -12 6 -4 42 -5 79 -2 47 4 71 2 75 -6 9 -15 60 2 65 21 2 7 9 60 15 118 6
58 26 220 45 360 19 140 49 354 65 475 71 525 163 1203 201 1490 122 924 166
1242 215 1555 54 342 78 546 79 675 1 108 -3 134 -36 260 -52 201 -71 339 -83
625 -13 300 -75 746 -156 1120 -210 962 -603 2029 -1281 3480 -209 445 -266
566 -361 760 -52 107 -154 317 -226 465 -174 356 -183 371 -241 389 -25 8 -79
17 -120 21 -41 3 -91 10 -110 15 -22 5 -4 6 50 2 124 -10 343 -3 352 11 3 6 4
15 1 20 -3 5 -9 4 -13 -3 -6 -9 -11 -7 -19 6 -11 17 -11 17 -6 -3 5 -17 2 -23
-9 -23 -8 0 -18 5 -22 12 -5 7 -2 8 7 3 11 -7 12 -5 1 6 -7 8 -45 17 -90 21
-42 3 -108 14 -147 23 -100 23 -302 55 -352 55 -32 0 -43 -4 -43 -16 0 -9 -5
-12 -11 -8 -9 5 -10 -1 -5 -22 9 -36 8 -35 48 -44 l33 -8 -34 -1 c-27 -1 -32
-4 -28 -18 3 -10 33 -89 67 -176 65 -171 264 -716 285 -782 7 -22 41 -116 75
-210 477 -1310 721 -2209 825 -3035 17 -131 20 -189 13 -198 -20 -23 -35 6
-42 81 -23 235 -113 755 -180 1030 -77 316 -127 476 -354 1142 -186 543 -244
703 -412 1135 -23 58 -77 200 -121 315 -44 116 -105 274 -135 351 -29 78 -72
192 -94 253 -49 137 -56 151 -78 151 -11 0 -18 8 -18 19 0 10 5 17 12 14 13
-5 7 44 -7 53 -5 3 -9 17 -9 32 -1 42 -25 123 -34 115 -5 -4 -5 2 -2 15 8 25
-1 62 -15 62 -5 0 -9 -6 -9 -14 0 -8 -5 -18 -10 -21 -6 -4 -10 -3 -9 2 4 24
-1 37 -12 26 -6 -6 -19 -9 -28 -6 -14 4 -13 2 2 -10 19 -16 23 -37 7 -37 -5 0
-9 5 -7 11 1 6 -9 13 -22 15 -30 5 -41 15 -23 21 19 7 14 19 -13 31 -14 7 -25
8 -25 2 0 -5 -7 -7 -15 -4 -10 4 -15 0 -15 -15 0 -11 -9 -25 -21 -31 -16 -9
-18 -14 -8 -26 17 -20 3 -30 -18 -13 -11 9 -14 10 -9 2 4 -7 2 -13 -3 -13 -6
0 -11 -7 -11 -15 0 -12 -7 -14 -27 -9 -19 4 -24 3 -15 -4 11 -7 9 -11 -8 -15
-33 -8 -50 15 -50 66 0 25 -4 47 -10 49 -5 2 -10 18 -12 36 -1 17 -6 32 -10
32 -4 0 -5 6 -2 13 3 8 -2 14 -11 14 -8 0 -15 -7 -16 -16 -1 -9 -7 2 -14 24
-9 28 -9 44 -2 53 7 9 6 17 -6 28 -9 8 -12 9 -7 2 12 -15 13 -28 2 -28 -5 0
-14 12 -21 26 -6 15 -14 24 -17 22 -3 -3 4 -21 14 -39 11 -19 25 -60 31 -91 7
-32 16 -58 20 -58 4 0 5 -17 3 -37 -3 -22 -1 -34 4 -30 5 5 9 14 9 20 0 5 5
12 11 14 14 5 16 -54 3 -80 -24 -44 26 -156 76 -170 11 -3 4 -5 -15 -4 -42 2
-42 26 -1 -258 54 -375 66 -564 65 -1025 0 -504 -8 -619 -84 -1240 -6 -47 -14
-116 -18 -155 -7 -70 -7 -70 -39 -73 -36 -4 -39 2 -23 58 28 104 78 751 87
1135 11 492 -37 1023 -132 1475 -44 208 -65 295 -75 318 -5 13 -10 33 -10 45
0 13 -4 27 -9 32 -5 6 -11 21 -13 35 -3 24 -4 24 -20 -9 -10 -18 -15 -37 -13
-42 3 -4 1 -10 -4 -14 -6 -3 -8 -12 -5 -19 3 -9 -2 -13 -18 -11 -13 1 -23 3
-23 5 0 1 -16 4 -35 7 -19 2 -75 13 -125 24 -49 11 -106 22 -125 25 -19 3 -75
15 -125 26 -49 11 -106 21 -125 23 -80 8 -317 82 -470 147 -290 124 -319 138
-292 138 7 0 10 5 7 10 -6 10 -3 11 80 17 108 7 479 -6 613 -22 51 -7 62 -11
62 -26 0 -11 7 -19 16 -19 10 0 14 6 10 15 -7 20 28 20 48 -1 15 -14 17 -14
22 0 5 14 21 15 108 10 55 -3 104 -10 107 -15 3 -5 14 -7 25 -4 18 6 18 6 -1
-11 -20 -17 -17 -17 30 2 11 5 14 1 9 -12 -4 -13 -3 -15 3 -7 12 16 129 10
234 -11 41 -9 91 -16 111 -16 31 0 36 -3 32 -17 -5 -14 -4 -15 4 -4 9 12 19
12 69 -4 32 -10 72 -18 88 -18 17 0 24 -2 18 -4 -7 -3 -13 -9 -13 -14 0 -5 12
-4 26 1 22 9 25 8 20 -5 -3 -9 -2 -14 2 -11 5 3 33 -1 63 -9 59 -16 85 -18 54
-5 -16 7 -13 9 18 9 20 1 37 5 37 9 0 4 -26 34 -58 65 -39 39 -87 72 -145 101
-47 24 -84 45 -82 47 2 2 -6 4 -18 5 -12 0 -67 10 -122 22 -144 31 -259 42
-435 45 -219 3 -445 -4 -430 -13 15 -9 -464 -25 -523 -17 -23 3 -43 11 -45 16
-2 6 -8 9 -12 6 -14 -8 -140 25 -192 51 -134 67 -526 449 -798 779 -41 50 -77
92 -80 95 -52 47 -312 393 -426 566 -96 145 -98 148 -112 206 -10 41 -42 246
-42 272 0 15 82 -76 443 -488 84 -96 327 -328 364 -347 l45 -23 19 22 c41 51
60 131 61 247 0 247 -92 460 -326 750 -44 55 -85 105 -91 112 -61 68 -196 212
-258 275 -42 44 -75 84 -71 89 3 5 2 9 -3 8 -23 -4 -33 3 -33 23 0 12 -3 19
-6 15 -8 -8 -33 16 -27 26 2 4 -8 11 -22 17 -17 6 -25 16 -23 27 2 12 -4 19
-18 21 -15 2 -20 8 -17 21 3 11 -11 33 -37 59 -22 24 -38 48 -34 54 5 7 3 8
-5 3 -7 -4 -22 2 -37 16 -24 22 -34 46 -14 34 6 -3 10 -2 10 4 0 5 -60 72
-134 148 -258 267 -328 345 -324 361 2 6 -1 10 -6 10 -5 1 -16 18 -26 39 -9
21 -24 44 -33 52 -9 7 -14 17 -11 22 3 5 -2 9 -10 9 -9 0 -16 9 -16 20 0 11
-4 20 -9 20 -5 0 -14 21 -20 48 -7 26 -14 56 -17 67 -4 16 -3 17 5 5 6 -8 11
-10 12 -5 1 6 3 15 4 20 2 6 3 16 4 23 1 17 24 15 73 -7 24 -11 88 -40 143
-65 55 -24 140 -63 188 -85 49 -23 90 -41 93 -41 18 0 439 -219 466 -242 31
-26 48 -34 48 -23 0 13 -83 162 -127 227 -100 150 -234 255 -505 397 -129 68
-395 181 -424 181 -8 0 56 69 142 153 354 345 686 803 798 1100 38 101 59 213
51 277 -7 57 -61 289 -70 298 -14 14 -11 -14 15 -123 39 -166 43 -223 20 -320
-57 -240 -243 -543 -573 -930 -64 -75 -280 -291 -367 -367 -91 -79 -174 -143
-165 -127 5 8 -5 1 -21 -15 -54 -53 -113 -88 -137 -81 -22 7 -22 7 -2 -8 19
-15 19 -16 -8 -13 -15 2 -30 -1 -34 -7 -3 -6 -1 -7 5 -3 7 4 12 3 12 -2 0 -14
-26 -33 -33 -25 -4 3 -7 -2 -7 -11 0 -12 -5 -16 -16 -12 -10 4 -13 2 -8 -6 5
-7 2 -9 -9 -5 -12 4 -14 2 -10 -10 4 -11 2 -14 -5 -9 -7 4 -12 2 -12 -4 0 -7
-12 -4 -30 6 -18 11 -25 21 -19 25 7 4 8 12 5 18 -4 6 -1 11 8 11 8 0 18 -4
21 -10 3 -5 11 -10 17 -10 7 0 6 5 -2 15 -7 8 -10 24 -7 35 3 13 -1 21 -13 25
-10 3 -22 19 -25 35 -6 29 -14 34 -42 31 -7 -1 -13 3 -13 9 0 5 -10 10 -21 10
-17 0 -20 -5 -17 -25 4 -17 1 -25 -8 -25 -8 0 -14 6 -14 14 0 8 -7 16 -15 20
-11 4 -13 11 -6 30 10 24 6 36 -11 36 -4 0 -8 -7 -8 -15 0 -8 -4 -15 -10 -15
-6 0 -6 9 0 25 10 27 -10 95 -27 95 -13 0 -18 99 -16 300 2 238 32 425 117
712 l25 87 -18 53 c-10 29 -23 64 -29 78 -6 14 -23 57 -38 95 -15 39 -34 88
-44 110 -48 110 -111 303 -136 411 -55 240 -70 394 -54 539 6 60 12 115 12
122 1 7 6 11 12 10 6 -1 12 5 12 13 1 8 3 20 4 25 1 6 2 14 1 18 -1 5 4 7 11
4 7 -2 12 -10 10 -16 -1 -7 2 -10 6 -7 5 3 8 17 6 32 -2 18 2 24 11 20 8 -3
15 -1 17 5 2 5 17 13 35 18 28 8 32 7 37 -15 5 -20 10 -23 39 -17 17 3 35 11
38 16 4 5 28 11 53 14 36 3 46 0 46 -12 0 -8 9 -15 20 -15 11 0 20 5 20 10 0
6 -7 10 -16 10 -8 0 -12 5 -9 10 3 6 -1 10 -9 10 -11 0 -15 9 -13 30 1 22 8
30 27 35 14 3 33 8 43 11 9 3 17 1 17 -5 0 -6 -13 -11 -30 -11 -19 0 -33 -7
-40 -20 -8 -16 -8 -20 4 -20 8 0 20 8 25 18 10 16 10 16 11 0 0 -10 4 -18 10
-18 5 0 7 7 4 15 -4 10 0 15 13 15 30 0 43 19 33 46 -6 15 -6 24 0 24 6 0 10
11 10 25 0 16 5 23 13 19 7 -2 21 2 32 10 19 14 19 15 2 16 -10 0 -15 5 -12
10 3 6 17 7 31 4 28 -7 46 22 23 37 -11 7 -9 10 9 15 15 4 21 12 18 21 -3 8
-2 12 3 9 12 -8 71 14 71 26 0 5 10 8 23 6 13 -1 37 9 57 24 25 19 37 24 42
15 5 -8 8 -6 8 6 0 20 36 24 43 5 3 -8 6 -6 6 5 1 9 -4 17 -10 17 -5 0 -7 5
-4 10 9 14 35 12 33 -2 -2 -8 9 -14 25 -16 25 -3 32 5 28 30 0 4 14 1 32 -6
17 -8 50 -21 72 -29 58 -21 432 -176 500 -207 78 -35 295 -129 315 -135 14 -5
33 -8 43 -6 9 1 17 0 17 -4 0 -3 -33 -41 -74 -84 -40 -43 -83 -100 -96 -126
l-23 -48 52 -102 c32 -63 62 -107 76 -115 67 -36 275 40 361 132 52 56 95 141
102 204 2 24 9 44 14 44 15 0 353 -124 578 -213 118 -47 431 -168 695 -270
264 -102 635 -246 825 -320 560 -220 851 -334 1095 -427 127 -48 325 -125 440
-170 116 -45 298 -115 405 -156 107 -41 246 -95 308 -121 l112 -46 -5 -46 c-3
-25 -12 -116 -21 -201 -34 -346 -87 -636 -143 -777 -50 -126 -134 -276 -190
-336 -21 -23 -23 -31 -14 -45 7 -9 31 -48 54 -85 l42 -68 -6 -92 c-6 -102 -31
-204 -107 -442 -28 -88 -55 -180 -60 -205 -56 -293 562 -1417 1161 -2115 257
-300 401 -438 582 -556 201 -133 349 -142 574 -38 163 75 424 262 593 424 98
94 256 260 222 232 -19 -15 -38 -25 -43 -22 -5 4 -6 -2 -2 -11 5 -14 3 -16
-11 -11 -14 6 -17 3 -12 -9 5 -12 2 -15 -9 -10 -9 3 -13 2 -10 -4 3 -6 0 -10
-8 -10 -14 0 -32 -26 -29 -41 1 -4 -12 -12 -29 -19 -16 -7 -34 -20 -38 -29 -5
-9 -13 -12 -17 -8 -5 5 -2 12 6 17 13 8 13 11 1 22 -8 7 -11 8 -8 2 7 -12 -52
-61 -68 -56 -5 2 -7 1 -3 -3 7 -8 -67 -75 -83 -75 -4 0 -6 -7 -3 -15 4 -9 0
-15 -9 -15 -9 0 -22 -3 -31 -6 -9 -3 -16 -1 -16 5 0 6 7 11 16 11 8 0 12 4 9
10 -4 6 -15 4 -29 -5 -12 -8 -26 -12 -30 -8 -4 5 -6 1 -4 -7 2 -8 -2 -14 -8
-13 -7 1 -15 -9 -18 -23 -5 -19 -11 -24 -26 -19 -13 4 -22 -1 -30 -15 -8 -14
-8 -20 0 -20 6 0 8 -5 5 -10 -4 -6 -16 -8 -27 -4 -14 4 -18 2 -14 -5 10 -15
-17 -14 -33 2 -10 10 -12 9 -11 -3 4 -29 0 -39 -15 -34 -8 4 -15 1 -15 -5 0
-6 -7 -8 -15 -5 -8 4 -15 1 -15 -6 0 -6 -4 -8 -10 -5 -5 3 -10 1 -10 -5 0 -7
-7 -10 -15 -6 -8 3 -15 0 -15 -5 0 -6 -9 -9 -20 -6 -11 3 -18 1 -14 -4 3 -5
-7 -10 -23 -11 -15 -1 -36 -2 -45 -2 -10 -1 -23 -7 -30 -14 -7 -7 -24 -12 -39
-12 -33 0 -46 26 -18 35 10 4 17 10 14 15 -3 5 5 12 19 16 16 4 23 11 19 20
-4 12 0 14 20 9 38 -10 95 53 81 89 -3 8 -12 12 -20 9 -8 -3 -18 5 -25 20 -7
16 -21 27 -37 29 -23 3 -24 5 -11 18 9 8 14 21 11 28 -2 6 0 12 5 12 5 0 15
16 23 35 8 19 17 35 22 35 4 0 8 9 8 19 0 11 7 27 16 35 9 9 20 32 25 51 5 19
16 40 23 47 7 7 16 25 19 40 4 15 13 33 20 40 6 7 18 31 26 53 8 22 40 95 72
163 33 68 59 125 59 127 0 2 16 39 36 82 58 125 144 341 171 428 14 44 29 93
33 109 9 28 9 28 -10 11 -11 -10 -26 -15 -36 -11 -10 4 -17 0 -21 -13 -3 -12
-17 -21 -41 -25 -21 -3 -48 -9 -61 -12 -20 -6 -22 -4 -16 15 5 17 2 21 -16 21
-18 0 -20 3 -11 12 18 18 15 25 -12 30 -18 4 -22 1 -19 -13 5 -19 -12 -35 -22
-19 -3 5 -15 10 -26 10 -11 0 -23 9 -28 22 l-8 22 -5 -22 c-6 -22 -28 -31 -28
-12 0 7 -6 7 -19 0 -14 -7 -22 -7 -27 1 -3 6 15 29 42 52 88 76 104 98 104
142 0 67 -87 375 -145 510 -7 17 -21 53 -30 80 -10 28 -21 55 -25 60 -4 6 -17
39 -30 75 -13 36 -27 70 -31 75 -4 6 -35 91 -68 190 -44 127 -64 201 -68 253
-3 39 -9 72 -14 72 -4 0 -11 -26 -14 -57 -6 -50 -64 -265 -97 -360 -14 -38
-22 -40 -153 -42 -55 -1 -118 -6 -140 -11 -25 -6 -44 -5 -49 0 -7 7 -5 10 3
10 7 0 9 5 6 10 -8 13 -127 13 -196 0 -130 -25 -207 -92 -319 -280 -78 -129
-76 -126 -148 -276 -14 -30 -18 -31 -61 -26 -49 5 -167 62 -286 141 -109 71
-201 158 -211 199 -4 12 -11 22 -18 22 -6 0 -4 5 4 11 11 8 12 12 2 16 -6 2
-10 8 -8 12 3 4 8 30 11 57 4 27 8 61 11 76 16 100 34 319 40 475 5 136 10
183 20 183 7 0 10 8 7 19 -5 20 22 37 33 20 3 -5 14 -7 24 -4 10 3 37 -1 61
-10 52 -17 62 -19 54 -5 -3 6 -1 10 4 10 6 0 11 -5 11 -11 0 -7 11 -8 29 -4
17 3 32 2 36 -5 9 -14 25 -3 19 14 -6 15 53 10 74 -7 9 -7 11 -6 7 5 -7 17 27
17 65 1 14 -7 41 -14 60 -17 19 -4 47 -12 62 -20 15 -8 40 -17 57 -21 16 -3
35 -13 42 -21 6 -8 19 -14 28 -14 21 0 176 -78 266 -135 39 -24 75 -44 80 -45
6 0 21 -12 34 -25 27 -29 52 -34 26 -5 -69 76 -459 297 -623 353 -33 11 -50
22 -46 29 4 7 3 8 -5 4 -6 -4 -21 -4 -32 -1 -17 6 -19 9 -8 17 10 7 8 7 -8 3
-13 -4 -23 -2 -23 4 0 5 -16 13 -35 17 -20 3 -35 12 -35 20 0 14 -12 18 -37
15 -7 -1 -13 6 -13 16 0 12 -3 14 -8 6 -5 -8 -13 -9 -22 -3 -11 7 -8 10 13 16
33 8 29 14 -15 24 -30 8 -31 9 -10 15 12 4 22 11 22 16 0 13 -13 11 -35 -5
-20 -14 -61 -4 -51 12 2 4 -7 8 -21 9 -18 1 -27 -5 -31 -19 -3 -12 -10 -17
-19 -14 -8 3 -19 6 -25 6 -6 0 -7 7 -4 16 4 11 1 14 -12 13 -9 -2 -27 1 -40 5
-20 7 -23 13 -21 57 2 27 0 52 -4 56 -4 3 -7 -2 -8 -13 -1 -18 -15 35 -54 196
-8 36 -22 90 -31 121 -15 53 -15 92 0 179 13 75 59 482 71 628 4 45 10 84 14
86 6 3 190 -67 256 -98 17 -7 71 -28 120 -46 50 -17 104 -38 120 -45 17 -8 57
-24 90 -36 33 -12 83 -32 110 -44 28 -12 77 -32 110 -45 111 -43 130 -50 158
-65 16 -8 34 -15 41 -15 21 0 1031 -382 1151 -435 28 -12 76 -32 107 -44 32
-13 61 -28 67 -35 5 -7 4 -47 -5 -106 -15 -105 -17 -249 -5 -322 6 -39 4 -55
-17 -100 -31 -67 -38 -135 -22 -239 19 -130 50 -182 175 -285 32 -27 66 -55
75 -63 56 -49 332 -205 344 -194 3 3 6 -1 6 -10 0 -11 7 -15 21 -12 11 2 29 0
40 -5 10 -6 27 -14 37 -19 10 -5 32 -12 50 -16 18 -3 32 -10 32 -14 0 -5 12
-6 27 -3 16 3 30 -1 37 -9 6 -8 30 -15 54 -16 24 -1 49 -6 57 -13 9 -8 14 -8
17 0 2 6 36 14 77 17 40 3 88 14 108 24 19 10 41 15 48 12 9 -3 16 5 20 24 13
56 29 86 68 123 21 21 35 40 30 43 -21 12 -149 49 -248 71 -177 40 -400 120
-515 183 -159 88 -266 204 -370 403 l-34 65 -3 185 c-2 102 0 191 5 198 7 10
43 -4 156 -58 80 -38 148 -70 150 -70 3 0 152 -72 333 -161 588 -288 621 -304
713 -337 70 -26 207 -61 290 -76 14 -2 52 -15 85 -29 33 -13 71 -28 85 -32 36
-11 384 -148 453 -179 l59 -26 -21 -26 c-54 -69 -211 -702 -295 -1189 -22
-129 -63 -465 -78 -640 -19 -228 -16 -761 5 -980 49 -496 133 -844 287 -1184
165 -366 424 -688 699 -869 276 -183 447 -246 1216 -451 705 -188 994 -254
1105 -254 178 1 583 133 843 275 338 186 726 503 1069 875 359 389 617 735
913 1223 65 107 123 201 129 207 13 15 49 3 235 -78 155 -68 215 -81 282 -64
128 34 238 118 313 239 59 93 80 176 73 277 -16 206 -107 291 -394 370 -53 14
-83 27 -83 36 0 7 11 35 24 61 32 63 170 390 266 632 123 308 339 970 327
1004 -2 6 -10 -14 -17 -44 -14 -62 -157 -498 -194 -593 -13 -34 -47 -120 -74
-192 -60 -154 -145 -360 -177 -430 -12 -27 -49 -108 -81 -180 -32 -71 -77
-164 -99 -205 -23 -41 -83 -156 -134 -255 -52 -99 -97 -184 -101 -190 -4 -5
-45 -80 -90 -165 -111 -208 -122 -228 -189 -339 -138 -230 -336 -526 -364
-546 -12 -8 -18 -15 -14 -15 4 0 3 -10 -4 -21 -9 -18 -13 -19 -21 -8 -8 11 -9
10 -5 -3 10 -28 -85 -134 -107 -121 -5 3 -6 1 -2 -5 4 -7 1 -12 -9 -12 -10 0
-13 -5 -9 -12 4 -6 3 -8 -4 -4 -5 3 -13 0 -16 -6 -3 -7 -3 -2 0 11 4 16 3 21
-5 17 -6 -4 -11 -14 -11 -22 0 -8 -7 -14 -15 -14 -9 0 -18 -7 -21 -15 -5 -11
-10 -12 -26 -4 -11 6 -18 7 -15 2 7 -12 -46 -53 -68 -53 -8 0 -15 -4 -15 -8 0
-9 -41 -8 -70 1 -50 16 -60 20 -60 27 0 12 -39 19 -46 9 -8 -14 -24 -10 -24 6
0 8 -5 15 -11 15 -20 0 3 20 24 21 21 0 21 1 -3 11 -14 6 -65 11 -115 12 l-90
1 -3 32 c-2 25 17 72 80 195 45 90 90 172 100 182 19 21 16 36 -8 36 -19 0
-18 17 3 29 17 9 17 11 -2 28 -25 22 -31 63 -10 63 8 0 15 6 14 13 -1 18 -17
54 -18 40 -2 -30 -21 -10 -21 22 0 23 -5 35 -14 35 -10 0 -12 9 -6 40 6 30 4
40 -6 40 -8 0 -16 11 -20 25 -3 14 -10 22 -15 19 -5 -3 -9 0 -9 5 0 6 5 11 10
11 6 0 10 10 10 23 0 18 -2 19 -10 7 -8 -12 -10 -10 -11 10 -1 14 -2 32 -1 40
0 8 -5 18 -11 22 -8 5 -6 8 6 8 9 0 17 -4 17 -10 0 -5 7 -10 16 -10 10 0 6 8
-15 25 -16 14 -28 32 -25 39 6 15 -42 50 -56 41 -6 -3 -10 4 -10 16 0 17 -3
20 -11 12 -18 -18 -2 -43 26 -43 18 0 25 -5 25 -19 0 -11 -5 -23 -10 -26 -5
-3 -10 1 -10 9 0 11 -9 16 -27 16 -25 0 -26 0 -8 -20 16 -17 16 -20 2 -20 -8
0 -17 6 -20 13 -3 9 -9 9 -24 1 -16 -10 -19 -9 -18 10 1 29 22 63 32 52 4 -5
2 -11 -4 -13 -7 -3 -13 -9 -13 -15 0 -6 6 -6 15 2 9 7 12 22 9 39 -4 18 0 33
10 44 9 8 16 20 16 26 0 6 6 11 13 11 8 0 7 4 -3 10 -11 7 -11 10 -2 10 7 0
11 4 8 9 -4 5 3 7 14 4 13 -4 20 0 20 9 0 8 9 32 19 54 11 22 23 52 26 67 4
14 13 31 21 38 8 6 14 17 14 24 0 7 7 26 15 41 22 43 20 61 -5 39 -20 -18 -21
-18 -14 0 5 12 4 16 -4 11 -8 -5 -8 1 -1 24 12 34 24 41 16 9 -4 -16 -3 -18 9
-8 8 6 14 7 14 2 0 -5 7 -10 15 -10 20 0 19 2 -7 27 l-22 20 37 68 c70 125
283 556 349 707 351 797 598 1616 692 2295 127 909 89 1639 -118 2322 -111
364 -298 729 -493 960 -40 48 -73 90 -73 92 0 27 -174 144 -328 223 -322 164
-719 210 -1082 128 -147 -34 -181 -46 -110 -39 30 3 66 7 80 9 164 23 218 27
300 22 521 -33 967 -304 1275 -778 63 -96 183 -329 230 -444 116 -284 201
-646 240 -1020 20 -191 34 -552 29 -720 -31 -892 -277 -1915 -694 -2885 -445
-1035 -1094 -1986 -1803 -2638 -312 -288 -534 -452 -833 -617 -123 -67 -134
-72 -134 -55 0 6 7 10 15 10 8 0 15 5 15 10 0 6 9 10 21 10 11 0 17 5 14 10
-3 6 3 10 13 10 11 0 22 7 26 15 3 8 12 15 21 15 8 0 15 5 15 11 0 5 5 7 10 4
6 -3 10 -2 10 4 0 5 9 12 19 16 10 3 30 17 45 31 14 14 30 23 35 20 6 -4 20 7
33 24 12 17 28 28 35 26 7 -3 13 -1 13 5 0 9 29 24 55 28 13 3 40 52 37 67 -1
7 9 10 27 8 17 -2 33 1 36 6 4 6 2 9 -3 8 -6 -2 -10 0 -11 5 -3 20 0 27 10 27
5 0 8 -4 5 -9 -4 -7 21 -8 44 -2 3 0 6 13 7 28 1 26 0 26 -13 9 -7 -10 -11
-23 -8 -27 3 -5 1 -9 -5 -9 -16 0 -19 24 -4 41 15 17 7 53 -9 43 -6 -4 -5 -10
3 -15 10 -6 3 -17 -25 -43 -20 -20 -43 -36 -49 -36 -7 0 -6 4 3 10 20 13 4 13
-21 0 -15 -8 -19 -7 -19 3 0 8 -7 20 -15 27 -13 11 -18 10 -28 -2 -7 -9 -19
-18 -27 -20 -8 -3 -10 -7 -4 -11 6 -3 22 0 36 7 24 13 25 12 25 -15 0 -29 -10
-38 -22 -19 -11 17 -43 11 -59 -12 -9 -12 -19 -18 -23 -14 -4 4 -1 11 6 15 7
5 14 20 14 35 0 15 5 26 13 26 31 0 11 20 -21 22 -19 0 -41 1 -47 2 -8 1 -12
-7 -10 -18 3 -17 1 -18 -12 -7 -14 12 -14 15 1 37 14 22 14 24 -1 24 -9 0 -16
5 -16 10 0 6 -5 10 -11 10 -5 0 -7 -4 -4 -10 3 -5 3 -10 -2 -11 -4 0 -17 -2
-29 -3 -11 -1 -29 1 -40 4 -14 5 -10 8 19 14 57 11 44 25 -18 19 -38 -4 -55
-2 -55 6 0 6 9 11 20 11 11 0 20 6 20 14 0 8 9 18 20 21 11 3 20 12 20 20 0
10 -7 12 -31 5 -27 -8 -32 -6 -36 11 -4 13 -11 18 -21 14 -17 -6 -44 13 -36
26 3 5 -2 6 -10 3 -11 -4 -14 -14 -10 -33 4 -20 3 -23 -5 -11 -16 22 -14 34
13 65 15 17 26 23 30 16 4 -6 4 -15 1 -21 -3 -5 -1 -10 4 -10 6 0 14 18 17 39
5 32 11 41 32 46 18 4 22 9 13 14 -10 6 -9 10 3 14 9 4 16 2 16 -3 0 -5 21 11
46 35 25 25 50 45 54 45 9 0 107 70 179 128 54 42 106 94 107 106 1 6 2 15 3
20 0 5 8 3 16 -4 8 -7 15 -9 16 -4 1 5 2 18 3 28 0 11 8 21 16 23 12 4 12 3 1
-5 -9 -7 -10 -12 -2 -16 6 -4 19 0 28 9 14 14 14 18 2 27 -10 7 -9 8 7 3 18
-5 21 -2 19 20 -2 15 1 23 7 19 6 -4 25 10 44 30 28 30 30 36 14 36 -10 0 -22
5 -25 10 -4 7 -13 7 -26 0 -15 -9 -19 -7 -19 5 0 9 5 13 10 10 6 -3 10 -1 10
4 0 17 -18 13 -40 -9 -21 -21 -35 -27 -25 -10 11 17 -22 11 -36 -7 -9 -11 -10
-14 -2 -9 9 5 11 2 7 -8 -3 -9 -12 -12 -22 -9 -12 5 -14 2 -9 -11 4 -10 3 -15
-3 -11 -6 3 -10 1 -10 -5 0 -6 -4 -9 -9 -5 -5 3 -16 -2 -24 -10 -9 -8 -20 -15
-26 -15 -6 0 -11 -4 -11 -10 0 -5 -12 -10 -26 -10 -24 0 -25 -2 -13 -17 10
-12 10 -15 1 -9 -7 4 -19 0 -28 -9 -9 -9 -23 -14 -31 -11 -7 3 -22 -3 -33 -14
-11 -11 -30 -20 -43 -20 -13 0 -32 -7 -43 -15 -10 -8 -28 -14 -39 -14 -14 0
-10 5 15 17 138 67 374 227 393 269 5 12 14 23 19 23 12 0 105 94 143 144 16
21 31 33 33 27 2 -6 14 -8 26 -5 18 4 22 0 24 -23 1 -15 7 -30 13 -31 11 -4
-14 -49 -38 -69 -8 -6 -13 -17 -11 -23 10 -32 358 362 566 642 460 620 918
1545 1181 2384 107 344 162 585 216 958 27 180 54 438 48 445 -2 3 -16 -7 -31
-21 -15 -14 -46 -37 -68 -51 -47 -29 -55 -52 -75 -212 -34 -286 -122 -704
-199 -950 -10 -33 -33 -107 -50 -165 -37 -123 -68 -217 -80 -245 -5 -11 -16
-40 -24 -65 -8 -25 -19 -56 -25 -70 -5 -14 -22 -56 -36 -95 -15 -38 -30 -79
-35 -90 -5 -11 -32 -76 -60 -145 -50 -119 -225 -480 -312 -640 -22 -41 -47
-88 -56 -105 -61 -119 -270 -447 -391 -613 -64 -89 -306 -392 -385 -482 -127
-146 -187 -221 -208 -263 -25 -47 -62 -87 -83 -87 -18 0 -28 -17 -15 -25 20
-12 10 -26 -11 -14 -17 8 -20 8 -14 -1 4 -7 1 -16 -6 -21 -10 -6 -10 -9 -2 -9
7 0 10 -7 7 -15 -4 -10 -13 -13 -26 -9 -14 4 -18 2 -14 -5 4 -6 2 -11 -3 -11
-6 0 -11 7 -11 15 0 8 4 15 9 15 5 0 14 12 19 28 6 15 49 70 97 122 93 102
131 150 119 150 -5 0 13 20 39 45 45 43 60 64 35 49 -7 -4 -2 5 11 19 20 22
22 27 8 27 -9 0 -17 4 -17 10 0 5 6 7 14 4 17 -7 32 14 19 27 -12 12 -86 -58
-77 -73 4 -7 3 -8 -4 -4 -7 4 -12 2 -12 -4 0 -8 -6 -8 -21 0 -11 6 -28 9 -37
7 -14 -4 -13 -6 6 -12 12 -4 22 -9 22 -10 0 -11 -62 -66 -68 -61 -4 4 1 13 11
20 16 13 24 36 11 36 -15 0 -63 -42 -60 -53 1 -7 1 -9 -1 -6 -2 4 -12 5 -22 2
-11 -3 -28 0 -40 6 -18 10 -21 9 -21 -9 0 -19 4 -20 36 -14 29 5 36 4 32 -7
-3 -8 -13 -15 -24 -15 -51 -4 -50 -4 -35 -13 7 -5 10 -14 7 -20 -4 -6 -2 -11
3 -11 6 0 11 7 11 15 0 19 16 20 23 2 3 -7 -4 -19 -15 -26 -30 -19 -56 13 -50
62 3 29 1 37 -12 37 -9 0 -16 -8 -16 -20 0 -11 -5 -20 -11 -20 -7 0 -9 11 -6
26 3 16 0 28 -9 31 -17 6 -18 30 -1 36 9 4 9 6 -1 6 -8 1 -16 -8 -19 -19 -3
-11 -9 -20 -14 -20 -5 0 -18 9 -29 20 -24 24 -30 25 -30 5 0 -22 -18 -18 -25
6 -5 14 -2 25 6 30 11 7 10 9 -3 9 -10 0 -18 5 -18 10 0 14 -33 13 -48 -2 -7
-7 -12 -9 -12 -4 0 17 32 38 50 33 11 -3 20 -2 20 1 0 10 -20 38 -20 29 0 -4
-11 0 -25 9 -19 13 -28 14 -39 5 -11 -9 -16 -6 -24 19 -6 17 -18 33 -27 36
-19 8 -20 44 0 44 8 0 15 -5 15 -11 0 -5 -4 -7 -10 -4 -16 10 -12 -5 6 -22 13
-14 17 -14 24 -2 5 8 4 19 -2 26 -8 10 -5 15 12 21 19 7 21 10 7 15 -9 3 -14
13 -11 20 3 8 -2 17 -10 20 -14 6 -21 -4 -17 -25 0 -5 -4 -8 -10 -8 -6 0 -8 9
-4 20 4 11 2 20 -4 20 -6 0 -11 -4 -11 -10 0 -5 -7 -10 -16 -10 -8 0 -13 4 -9
10 3 5 -19 8 -55 7 -35 -1 -60 2 -60 8 0 11 -59 13 -75 3 -6 -4 -17 -3 -25 3
-8 5 -30 9 -48 9 -20 0 -31 4 -27 10 3 6 17 10 31 10 14 0 23 4 19 10 -3 6 1
13 9 16 23 9 20 24 -4 24 -13 0 -20 -7 -20 -20 0 -23 -13 -26 -29 -6 -9 11 -6
18 16 35 27 20 27 21 7 27 -15 4 -20 12 -17 24 6 22 -14 35 -31 21 -10 -9 -15
-8 -20 4 -4 11 1 15 19 15 16 0 25 6 25 16 0 8 4 13 8 10 5 -3 9 8 9 24 0 26
-4 30 -29 30 -20 0 -28 4 -25 13 2 6 14 11 26 10 25 -3 28 14 4 20 -15 4 -16
5 -2 6 10 1 18 12 21 30 3 22 1 28 -11 23 -9 -3 -12 -1 -7 6 4 7 -2 22 -13 34
-12 12 -21 28 -21 35 0 7 -7 13 -15 13 -8 0 -15 5 -15 10 0 6 5 10 12 10 9 0
9 3 0 12 -13 13 -17 48 -6 48 4 0 12 -7 18 -16 10 -13 14 -13 35 5 18 16 20
21 8 21 -8 0 -18 8 -20 18 -4 16 -5 16 -6 0 -1 -20 -45 -26 -56 -8 -3 6 0 10
8 10 16 0 30 37 17 45 -5 3 -10 -3 -13 -12 -3 -14 -6 -11 -12 10 -7 27 3 54
12 30 3 -7 9 -13 14 -13 14 0 11 22 -6 40 -18 20 -10 51 11 43 8 -3 14 0 14 6
0 6 -11 11 -25 11 -14 0 -25 -4 -25 -10 0 -5 -7 -10 -16 -10 -13 0 -10 6 10
27 25 25 26 28 9 34 -15 7 -15 8 5 8 17 1 22 6 20 19 -3 12 -12 16 -36 14 -18
-1 -32 2 -32 7 0 6 15 11 33 13 27 3 32 7 32 28 -1 14 -4 37 -8 53 -6 21 -4
27 8 27 11 0 15 -6 10 -19 -7 -24 21 -49 37 -33 8 8 8 15 -1 26 -7 8 -10 19
-7 24 10 16 55 23 77 12 15 -9 24 -8 35 1 9 7 14 8 14 1 0 -7 10 -6 27 3 15 8
39 11 55 8 17 -3 28 -1 28 6 0 6 -6 11 -14 11 -9 0 -12 7 -9 21 4 14 9 17 16
10 6 -6 17 -11 24 -11 20 0 53 38 47 53 -3 8 3 18 13 22 15 6 12 10 -17 21
l-35 14 34 -3 c18 -1 33 3 32 8 -1 13 -69 17 -76 5 -9 -15 -25 -12 -25 4 0 8
11 17 25 20 21 5 25 12 24 39 -1 17 -3 24 -6 15 -10 -37 -26 -17 -21 25 3 29
0 50 -9 63 -14 19 -14 19 -29 0 -13 -19 -14 -19 -14 7 0 17 5 27 15 27 8 0 15
4 15 9 0 5 8 12 18 14 15 4 15 5 -2 6 -15 1 -16 4 -6 16 11 13 8 15 -14 15
-38 0 -32 20 7 21 l32 1 -27 12 c-20 9 -25 15 -17 26 8 13 11 12 20 -3 8 -14
14 -16 25 -6 20 16 18 59 -3 59 -9 0 -25 8 -36 17 -18 17 -19 17 -16 -1 3 -14
-4 -21 -23 -27 -16 -4 -28 -3 -28 2 0 5 8 9 18 9 11 0 17 8 18 25 1 15 -3 25
-12 25 -17 0 -19 26 -3 36 6 3 15 0 20 -7 8 -13 10 -12 13 10 2 18 16 24 16 7
0 -9 5 -14 10 -11 6 3 10 19 10 36 0 16 -4 29 -10 29 -5 0 -10 -7 -10 -16 0
-12 -6 -15 -22 -10 -13 3 -31 6 -40 6 -10 0 -18 6 -18 14 0 8 -8 17 -17 19
-17 4 -17 5 0 6 9 0 17 5 17 11 0 5 7 7 15 4 8 -4 12 -11 8 -17 -4 -6 0 -8 10
-4 10 3 17 2 17 -4 0 -6 5 -7 11 -3 6 4 -2 15 -20 28 -38 26 -42 51 -7 42 25
-6 45 8 27 18 -5 4 -12 0 -14 -6 -3 -7 -6 -4 -6 8 -1 11 3 24 9 30 6 6 3 10
-9 11 -15 1 -18 -3 -13 -20 5 -20 3 -20 -23 6 -16 15 -31 24 -34 20 -3 -5 -25
-9 -48 -11 -33 -2 -43 1 -43 13 0 8 -7 15 -16 15 -8 0 -13 4 -10 9 3 4 16 6
29 4 56 -11 171 77 203 153 30 71 6 200 -41 227 -9 4 -12 13 -9 19 4 7 2 8 -4
4 -6 -4 -37 6 -69 22 -32 15 -100 46 -150 67 -51 21 -91 41 -89 43 5 4 145
-49 200 -77 5 -2 7 3 3 12 -3 10 -2 17 3 17 6 0 10 -4 10 -10 0 -5 4 -10 9
-10 14 0 92 53 86 58 -2 3 -11 -1 -19 -7 -22 -19 -31 7 -10 30 10 11 12 19 6
19 -7 0 -12 -5 -12 -11 0 -6 -7 -8 -16 -5 -11 4 -15 2 -11 -7 9 -24 -33 -16
-50 9 -10 15 -22 23 -31 19 -17 -6 -44 13 -37 26 3 4 17 4 30 -1 23 -9 29 -6
27 11 -2 13 57 -5 62 -20 3 -9 4 -1 2 17 -1 18 1 35 6 38 11 7 -17 34 -34 34
-9 -1 -8 -5 4 -13 12 -10 14 -17 7 -28 -8 -11 -12 -11 -16 -1 -2 6 -14 12 -25
12 -14 0 -18 5 -14 16 3 9 6 20 6 25 0 5 10 8 21 6 12 -1 24 4 26 11 3 7 -4
12 -18 12 -36 0 -15 10 25 12 20 1 36 4 36 8 0 12 -45 21 -48 10 -5 -13 -32
-13 -32 -1 0 6 5 13 11 16 6 4 7 14 3 24 -4 9 -7 30 -8 46 -1 23 -5 29 -18 27
-10 -2 -18 2 -18 8 0 5 11 10 24 10 14 0 28 5 31 10 3 6 3 10 -2 10 -13 0 -32
50 -26 66 3 8 15 20 27 26 21 12 27 14 46 17 31 4 -18 81 -51 81 -9 1 -7 6 5
15 11 8 15 15 8 15 -7 0 -11 14 -10 35 1 26 5 34 15 31 7 -3 13 -2 14 2 0 4 2
15 4 25 2 11 -1 16 -8 14 -7 -3 -11 -10 -10 -16 5 -18 -11 -13 -24 9 -9 13 -9
21 -2 26 6 3 9 15 6 25 -3 12 2 19 17 22 17 3 15 5 -6 6 -35 1 -36 17 -3 28
19 6 22 11 14 23 -8 11 -12 12 -16 3 -2 -7 -14 -13 -26 -13 -21 1 -21 1 -3 15
12 9 38 14 70 12 49 -2 51 -1 54 26 2 15 -1 27 -7 27 -6 0 -11 -7 -11 -16 0
-9 -6 -14 -12 -11 -7 2 -21 0 -32 -5 -12 -6 -22 -6 -28 0 -12 12 27 36 42 27
6 -3 10 3 10 14 0 12 -7 21 -15 21 -8 0 -15 5 -15 10 0 6 -5 10 -11 10 -5 0
-7 -4 -4 -10 3 -5 -1 -10 -9 -10 -10 0 -13 6 -10 15 7 18 26 19 41 4 12 -12
73 -3 73 11 0 4 -17 8 -37 8 -42 -1 -69 4 -79 15 -4 4 1 7 12 7 18 1 18 1 -1
17 -16 13 -17 15 -2 10 14 -5 17 0 17 28 0 18 5 37 11 41 7 4 7 10 1 16 -13
13 -32 1 -32 -20 0 -13 -2 -13 -15 4 -20 26 -19 33 5 27 14 -4 20 0 20 11 0 9
-7 16 -16 16 -10 0 -14 6 -11 15 4 8 2 17 -4 20 -13 9 -1 25 18 25 9 0 13 -6
10 -14 -3 -8 3 -24 14 -37 18 -21 19 -21 20 -3 2 25 2 26 -6 47 -6 13 -3 16 9
11 11 -4 16 -1 16 11 0 12 -5 15 -17 10 -27 -11 -38 -11 -40 0 -1 6 5 9 13 7
8 -2 14 5 14 14 0 10 5 14 14 11 10 -4 13 -1 9 9 -3 8 -18 18 -34 21 -16 3
-29 9 -29 14 0 5 14 6 32 2 29 -6 31 -5 25 18 -4 13 -7 34 -7 47 0 15 -6 22
-20 22 -11 0 -20 7 -20 15 0 9 6 12 15 9 12 -5 15 2 15 30 0 29 -4 36 -19 36
-11 0 -22 4 -25 9 -4 5 3 7 14 4 12 -3 20 0 20 6 0 7 4 10 8 7 5 -3 5 17 1 45
-4 27 -5 57 -2 64 3 8 -2 18 -11 21 -18 7 -21 35 -5 51 7 7 8 17 1 29 -5 11
-12 31 -16 46 -5 23 -3 26 17 21 l22 -5 -23 21 -23 20 20 13 c28 17 26 26 -6
30 l-28 4 28 14 c28 14 36 30 15 30 -8 0 -13 14 -13 35 0 24 5 35 15 35 10 0
11 3 4 8 -16 10 -26 60 -14 64 6 2 1 14 -12 28 -16 17 -18 22 -5 17 25 -10 30
10 7 33 -28 28 -25 37 10 32 33 -5 39 8 15 28 -13 11 -13 15 -3 21 10 7 9 9
-4 9 -20 0 -24 25 -7 35 6 4 8 13 5 21 -3 8 0 14 6 14 7 0 6 5 -2 15 -12 14
-7 20 14 16 5 -1 4 5 -3 13 -7 8 -10 20 -6 26 3 5 1 10 -5 10 -7 0 -5 9 4 22
18 25 22 63 6 53 -5 -3 -7 0 -4 9 3 8 12 17 21 20 10 4 13 14 9 30 -5 20 -2
24 19 24 14 0 25 -5 25 -10 0 -5 5 -6 10 -3 17 11 0 25 -29 25 -50 0 -49 64 0
74 35 7 35 29 1 34 -27 4 -27 7 -2 39 25 32 18 43 -25 43 -19 0 -36 4 -39 8
-3 5 4 8 14 8 11 -1 20 4 20 9 2 16 23 37 45 45 17 7 15 9 -12 9 -25 1 -31 5
-27 16 4 9 0 15 -9 15 -24 0 -30 -18 -12 -36 11 -12 13 -20 6 -27 -8 -8 -15
-5 -25 9 -8 10 -20 19 -28 19 -7 0 -14 8 -16 17 -2 12 1 16 11 12 8 -3 17 2
20 10 4 9 2 16 -3 16 -6 0 -10 5 -10 11 0 6 9 9 20 6 22 -6 26 3 9 20 -8 8 -8
13 0 17 6 4 11 2 11 -3 0 -26 18 -8 23 22 5 37 0 48 -14 27 -8 -11 -9 -9 -4 9
5 16 4 21 -4 17 -6 -4 -11 -18 -11 -32 0 -26 -7 -29 -30 -14 -13 9 -13 12 3
21 9 5 17 17 17 24 0 8 4 15 10 15 5 0 9 6 7 13 -1 6 5 11 14 9 9 -1 21 9 27
23 6 14 16 26 22 26 5 1 14 2 19 3 16 2 25 16 10 16 -9 0 -14 12 -15 33 -1 17
1 24 3 15 7 -27 29 -22 53 12 12 17 19 30 15 30 -16 0 65 73 82 75 11 0 33 10
49 22 42 30 172 98 246 128 34 15 79 34 98 42 94 42 119 52 173 72 31 11 81
30 110 40 123 46 259 76 452 100 65 8 61 9 -65 10 -186 1 -293 -13 -435 -60
-137 -45 -424 -184 -535 -258 -41 -28 -79 -51 -85 -51 -13 1 15 22 110 81 28
18 62 40 77 50 15 11 32 19 39 19 6 0 23 8 37 18 15 10 39 24 54 31 15 8 26
17 24 20 -2 3 7 7 21 8 14 0 29 6 33 13 4 6 10 11 14 11 24 -3 30 0 16 10 -12
8 -10 9 7 4 12 -3 24 -1 28 5 3 6 10 8 15 5 5 -3 18 5 29 17 12 12 21 17 21
11 0 -7 12 -7 39 0 22 6 38 14 35 18 -2 4 3 9 11 13 9 3 12 12 8 23 -6 15 -5
16 9 3 14 -13 14 -16 -1 -27 -11 -9 -1 -8 34 2 28 8 53 15 56 15 4 0 9 11 11
25 3 13 2 23 -2 20 -3 -2 -14 5 -24 17 -11 13 -25 18 -39 15 -12 -3 -33 -8
-47 -11 -25 -6 -31 -8 -110 -43 -50 -23 -110 -38 -110 -28 0 10 167 87 194 89
13 0 22 4 20 7 -5 9 165 47 216 48 24 1 53 4 63 7 13 4 17 2 13 -5 -5 -7 2
-11 18 -11 13 0 26 6 28 12 6 18 115 19 298 3 172 -16 229 -28 405 -87 151
-51 175 -63 268 -137 66 -53 102 -90 225 -237 l33 -39 -22 43 c-13 23 -30 50
-38 60 -9 9 -29 34 -44 55 -40 53 -131 141 -202 195 -33 25 -64 50 -70 56 -74
82 -282 177 -464 212 -179 35 -455 27 -619 -17 -214 -57 -495 -187 -742 -342
-91 -58 -303 -211 -334 -242 -9 -10 -17 -11 -21 -5 -3 5 -2 10 3 10 9 0 26 14
97 78 17 15 39 34 50 42 11 9 25 24 31 35 6 11 17 20 25 20 8 1 26 9 42 19 22
15 25 21 16 32 -9 11 -15 11 -25 3 -19 -15 -18 1 2 29 14 21 14 25 -1 48 -21
32 -36 22 -28 -19 l6 -32 -21 19 c-12 11 -22 28 -22 40 0 15 -3 17 -11 9 -8
-8 -18 -8 -34 -1 -16 7 -30 6 -51 -5 -29 -15 -88 -12 -79 4 3 4 12 6 20 3 7
-3 22 0 32 6 13 8 13 10 2 7 -9 -3 -22 -1 -29 3 -13 8 -42 -3 -68 -27 -19 -18
-39 -16 -46 4 -6 16 7 31 29 34 6 0 -1 4 -15 8 -36 10 -54 -16 -29 -43 21 -22
22 -27 13 -51 -6 -14 -8 -14 -23 -1 -9 8 -27 16 -41 19 -24 4 -24 4 3 6 21 1
28 5 25 18 -2 10 -12 19 -22 21 -11 3 -16 0 -12 -7 4 -6 3 -11 -3 -11 -23 0
-20 21 4 30 17 6 25 16 22 24 -3 8 6 19 21 27 l27 13 -27 4 c-18 2 -25 8 -22
17 4 9 16 12 40 8 22 -4 34 -2 34 6 0 6 -12 11 -27 11 -20 0 -24 3 -16 11 9 9
6 16 -10 30 -18 15 -20 20 -9 31 7 7 13 9 12 3 -5 -23 1 -35 18 -35 10 0 23
-5 30 -12 9 -9 12 -9 12 0 0 7 -4 12 -10 12 -19 0 -10 28 10 33 12 3 20 14 20
26 0 14 6 21 20 21 11 0 20 5 20 10 0 6 -4 10 -10 10 -13 0 -13 37 0 45 6 4 8
11 5 16 -4 5 -4 9 -1 9 3 0 12 -12 21 -27 16 -28 16 -28 11 -3 -2 14 0 34 4
45 5 11 9 16 9 12 1 -4 13 4 29 18 15 14 35 28 44 31 10 3 15 11 11 20 -4 10
5 19 26 27 18 7 29 17 27 24 -3 8 2 13 14 13 10 0 26 10 34 22 9 12 16 17 16
10 0 -6 5 -12 11 -12 5 0 7 5 4 10 -3 6 5 14 19 20 14 5 26 12 26 15 0 4 -4 3
-10 0 -5 -3 -10 -1 -10 4 0 11 15 15 35 11 5 -1 7 2 3 6 -11 10 11 34 32 34 9
0 34 16 54 35 21 19 35 35 32 35 -18 0 -175 -114 -169 -123 3 -6 1 -7 -5 -3
-29 18 -482 -372 -722 -620 -623 -647 -1137 -1474 -1545 -2484 -45 -113 -91
-231 -101 -262 -10 -32 -23 -58 -30 -58 -7 0 -79 29 -161 64 -81 34 -227 93
-323 130 -96 36 -193 75 -214 86 -27 14 -43 17 -50 10 -5 -5 -16 -10 -24 -10
-8 0 -43 -27 -78 -59 -34 -33 -95 -85 -133 -116 -39 -31 -71 -60 -71 -65 0
-16 -54 -19 -103 -7 -26 7 -44 16 -41 20 4 4 0 7 -10 7 -24 0 -96 50 -96 67 0
8 43 57 95 109 52 52 100 105 107 118 7 13 34 62 59 107 99 178 91 228 -10 66
-40 -64 -79 -123 -87 -132 -8 -8 -15 -18 -15 -22 1 -19 -95 -141 -125 -161
l-33 -22 -78 26 c-43 15 -83 27 -90 27 -7 0 -10 4 -7 8 4 7 -37 44 -57 51 -11
4 50 166 115 303 67 141 101 234 90 245 -7 7 -29 -30 -64 -105 -30 -63 -57
-115 -62 -115 -4 0 -7 -3 -6 -7 3 -14 -14 -58 -26 -65 -6 -4 -11 -11 -11 -15
0 -18 -30 -79 -44 -89 -8 -6 -11 -16 -7 -22 8 -13 -9 -58 -29 -78 -30 -31 -6
-64 58 -79 15 -4 27 -11 27 -16 0 -12 3 -12 -60 12 -30 11 -64 23 -75 27 -11
3 -41 18 -67 33 -25 15 -49 25 -52 22 -3 -3 -11 -1 -18 4 -7 6 -47 25 -88 42
-41 18 -83 39 -92 48 -10 9 -18 13 -18 9 0 -4 -12 1 -27 12 -16 10 -40 22 -54
25 -14 4 -42 18 -63 32 -20 14 -41 25 -46 25 -6 0 -10 4 -10 8 0 4 -12 9 -27
10 -16 1 -29 7 -31 12 -2 6 -9 10 -15 10 -7 0 -25 7 -42 16 -16 9 -59 27 -95
39 -63 23 -65 24 -68 61 -2 21 3 56 11 78 22 59 55 196 57 231 5 73 5 72 -65
79 -67 7 -115 23 -115 38 0 4 -13 8 -28 8 -16 0 -103 26 -193 59 -151 54 -244
89 -544 206 -245 95 -543 208 -595 225 -58 19 -567 214 -900 345 -211 83 -525
205 -685 265 -530 200 -648 245 -770 293 -356 140 -574 225 -745 287 -102 37
-295 112 -430 165 -275 109 -590 230 -725 280 -49 19 -229 88 -400 155 -326
128 -766 290 -788 290 -6 0 -25 7 -41 15 -26 14 -31 14 -55 -1 -14 -10 -34
-27 -45 -38 -10 -12 -23 -20 -28 -18 -5 1 -7 -1 -4 -6 3 -5 -46 -60 -109 -121
-63 -62 -115 -117 -115 -122 0 -13 -26 -11 -42 4 -7 6 -37 23 -65 36 -29 14
-53 27 -53 31 0 4 -18 15 -40 25 -25 11 -39 23 -36 31 3 8 -3 18 -12 23 -15 9
-12 15 24 53 23 24 50 53 60 65 9 12 21 20 26 17 4 -3 8 2 8 10 0 22 60 87 73
79 6 -4 8 0 5 9 -4 8 7 29 24 49 33 38 71 100 87 141 20 53 -8 38 -63 -34 -30
-40 -65 -84 -78 -98 -13 -14 -52 -59 -88 -100 -110 -127 -143 -160 -156 -160
-7 0 -63 23 -123 51 -118 55 -130 69 -90 105 12 10 28 32 36 48 8 16 24 39 36
50 11 12 16 15 12 7 -5 -9 -4 -12 3 -8 5 4 8 15 5 26 -3 12 3 24 17 34 12 8
19 20 15 26 -3 6 3 25 15 41 12 17 19 30 16 30 -3 0 8 26 23 58 16 31 41 88
56 125 15 38 33 80 41 95 7 14 11 29 8 32 -8 6 -29 -25 -75 -109 -53 -97 -75
-135 -103 -180 -15 -22 -26 -45 -26 -49 0 -5 -12 -22 -26 -37 -14 -15 -27 -35
-29 -45 -6 -33 -83 -160 -97 -160 -31 0 -268 128 -268 146 0 6 29 69 64 140
35 71 73 150 85 176 30 68 86 266 77 275 -11 11 -24 -15 -76 -148 -25 -63 -49
-116 -54 -116 -10 -1 -26 -23 -26 -36 0 -5 6 -5 13 -2 6 4 4 0 -5 -8 -10 -8
-15 -17 -11 -20 3 -4 -1 -7 -10 -7 -10 0 -17 -4 -17 -10 0 -5 -7 -10 -16 -10
-12 0 -14 -4 -6 -12 7 -9 3 -19 -11 -33 -17 -17 -19 -17 -14 -2 4 11 1 17 -9
17 -11 0 -14 -6 -10 -16 3 -8 2 -23 -4 -33 -6 -13 -5 -24 6 -39 10 -15 11 -23
3 -28 -8 -5 -9 -3 -4 6 5 9 4 11 -4 6 -6 -4 -9 -16 -6 -27 9 -28 -21 -24 -71
9 -23 15 -63 40 -89 55 l-48 28 6 87 c3 48 9 96 12 107 5 18 -31 32 -457 174
-255 84 -465 155 -467 157 -2 2 23 86 57 186 159 475 291 1014 366 1493 42
266 77 615 75 734 l-2 56 -8 -60 c-4 -33 -17 -141 -29 -240 -44 -383 -114
-772 -211 -1160 -138 -552 -202 -755 -364 -1145 -40 -96 -99 -238 -130 -315
-144 -350 -368 -815 -535 -1110 -15 -27 -36 -66 -47 -85 -10 -19 -41 -72 -68
-118 -28 -46 -60 -100 -72 -120 -12 -20 -27 -36 -32 -34 -6 1 -11 -2 -11 -6 0
-19 -84 -112 -101 -112 -6 0 -7 -4 -4 -10 3 -5 -4 -20 -15 -32 -12 -13 -27
-34 -33 -48 -8 -21 -11 -22 -14 -7 -4 14 -8 16 -19 6 -8 -6 -14 -19 -13 -28 0
-12 2 -12 10 4 8 18 8 18 6 -5 -1 -18 -9 -26 -26 -28 -14 -2 -35 -11 -48 -19
-16 -11 -23 -12 -23 -3 0 6 9 14 21 17 26 7 22 45 -5 49 -26 4 -39 27 -22 39
12 9 12 14 0 29 -13 19 -15 18 -38 -7 -18 -19 -33 -26 -55 -24 -37 2 -39 10
-9 31 19 14 20 16 4 22 -11 4 -24 -1 -38 -15 -27 -30 -36 -19 -12 15 11 15 24
35 30 46 6 10 21 29 33 42 11 12 21 26 21 30 0 4 7 14 15 23 9 8 15 17 13 19
-2 1 -60 -52 -129 -119 -202 -198 -357 -301 -486 -325 -97 -19 -182 8 -217 68
-18 29 -21 52 -21 135 1 204 89 427 320 810 166 276 216 366 213 376 -2 5 -14
0 -26 -12 -26 -24 -42 -19 -21 7 12 15 11 16 -19 9 -33 -7 -33 -7 -15 14 9 12
24 21 33 22 10 0 11 2 3 6 -7 2 -13 16 -13 30 0 14 -8 32 -17 39 -17 13 -17
15 -1 27 10 8 15 16 12 19 -8 9 18 58 28 52 5 -3 6 5 3 19 -4 15 -1 30 7 38 8
7 12 23 10 36 -2 13 1 23 7 23 6 0 11 11 11 25 0 14 5 25 11 25 8 0 8 5 -1 15
-10 12 -10 15 3 15 10 0 15 10 15 34 0 42 8 57 27 49 18 -6 20 8 3 25 -10 10
-10 15 2 22 13 9 13 11 0 19 -12 9 -12 11 3 17 9 3 17 15 17 25 0 10 5 19 10
19 6 0 10 4 10 10 0 5 -8 7 -17 3 -17 -6 -17 -5 -1 13 12 13 14 24 8 34 -5 8
-9 22 -9 30 0 11 2 11 6 2 3 -9 10 -7 24 9 24 28 24 32 -1 19 -23 -12 -26 2
-11 44 7 18 15 23 29 19 11 -2 23 1 27 7 5 9 1 10 -14 5 -24 -7 -29 13 -8 34
6 7 8 12 2 11 -22 -5 -27 1 -15 15 7 8 17 12 22 9 6 -4 8 1 4 14 -8 24 13 74
27 65 6 -4 8 0 4 10 -6 17 37 127 55 138 5 3 8 10 6 15 -2 8 10 46 33 99 11
27 38 94 39 100 1 2 10 28 21 57 11 29 27 73 35 98 9 25 21 59 29 75 7 17 41
113 75 215 194 586 331 1199 385 1724 32 323 38 425 39 711 0 454 -32 758
-126 1160 -16 71 -34 137 -38 146 -5 9 -11 28 -14 43 -4 22 -2 27 11 22 12 -5
14 -1 10 14 -7 27 8 25 20 -2 9 -22 10 -21 15 10 3 21 1 31 -6 29 -7 -3 -11
21 -11 70 0 49 -4 78 -13 85 -9 8 -10 13 -2 18 8 5 8 15 -1 36 -6 16 -12 49
-13 74 -2 25 -6 55 -10 66 -5 18 -2 22 24 27 16 4 35 5 42 2 7 -2 33 -7 58
-10 25 -4 56 -8 70 -11 14 -2 41 -5 62 -6 20 -2 34 -6 32 -9 -2 -4 19 -9 46
-12 28 -3 60 -13 72 -22 13 -8 31 -15 42 -15 11 0 27 -6 35 -14 9 -7 27 -17
41 -20 l25 -7 -25 21 c-14 11 -35 29 -47 39 -12 10 -29 21 -39 25 -13 5 -14 9
-5 20 10 11 0 21 -49 51 -34 20 -59 39 -56 42 6 6 119 -48 128 -62 5 -7 8 -7
8 0 0 6 -6 17 -12 24 -11 11 -9 11 9 2 15 -8 20 -17 16 -29 -6 -15 -5 -16 12
-2 10 8 16 10 12 4 -4 -7 1 -18 10 -25 15 -12 16 -12 10 4 -5 14 -3 16 12 8
10 -6 23 -17 31 -25 7 -9 21 -16 31 -16 11 0 19 -4 19 -9 0 -5 9 -11 20 -14
34 -9 14 8 -87 76 -174 115 -485 273 -968 492 -88 40 -214 106 -280 147 -159
100 -266 153 -394 195 -204 66 -429 90 -649 68z m4928 -7211 c149 -40 144 -36
137 -95 -15 -122 -115 -236 -252 -285 -139 -50 -179 -49 -206 8 -9 18 -24 49
-34 68 -44 84 -44 83 -29 119 8 19 56 76 107 128 l92 94 45 -6 c25 -3 88 -18
140 -31z m11810 -951 c0 -14 -54 -68 -120 -120 -137 -108 -358 -349 -539 -586
-41 -53 -76 -97 -78 -97 -2 0 4 15 14 33 9 17 16 36 15 40 -1 5 2 6 7 3 5 -4
15 9 22 28 7 19 20 37 30 39 9 3 20 19 24 36 3 17 12 29 18 28 6 -1 13 7 15
19 3 20 170 212 306 352 109 113 237 224 252 218 8 -3 14 -1 14 4 0 6 5 10 10
10 6 0 10 -3 10 -7z m1675 -4906 c-91 -177 -290 -485 -453 -702 -106 -140
-232 -292 -232 -278 0 4 -7 -2 -15 -13 -14 -18 -14 -18 -8 4 3 13 1 22 -6 22
-7 0 -9 5 -6 11 4 6 13 8 21 5 8 -3 11 0 8 9 -4 9 11 32 36 57 23 24 54 61 68
83 14 22 56 76 92 120 128 153 280 372 436 629 43 71 80 124 82 117 2 -7 -8
-36 -23 -64z m-1013 -1054 c-60 -84 -383 -363 -420 -363 -5 0 -12 -4 -14 -8
-4 -11 -123 -87 -203 -132 -55 -30 -58 -31 -35 -8 14 14 27 26 30 26 19 0 30
4 42 15 7 7 36 26 63 42 49 28 57 34 100 72 12 10 29 19 38 21 18 3 103 82 90
82 -5 0 0 5 10 11 9 6 14 15 11 21 -5 7 -2 8 5 4 12 -8 86 63 76 72 -6 6 19
31 26 26 4 -2 13 4 20 13 10 11 10 14 2 9 -9 -5 -11 -2 -7 9 4 9 13 14 20 11
8 -3 14 1 14 9 0 16 36 39 49 31 4 -3 8 1 8 9 0 8 -4 15 -9 15 -4 0 -8 4 -8 9
0 5 9 7 20 4 15 -4 19 -12 15 -30 -2 -14 -1 -22 3 -18 4 3 7 10 7 14 0 11 48
61 58 61 5 0 -1 -12 -11 -27z"/>
<path d="M22030 34321 c-83 -12 -135 -29 -248 -78 l-102 -44 -102 12 c-146 17
-276 8 -363 -25 -144 -55 -245 -159 -311 -323 -34 -85 -40 -93 -64 -93 -15 0
-61 -9 -102 -19 -187 -48 -304 -155 -336 -307 -20 -94 -35 -366 -29 -534 11
-307 39 -497 89 -616 l30 -72 -30 -64 c-16 -35 -50 -106 -75 -158 -25 -52 -78
-149 -117 -215 -160 -265 -342 -458 -588 -624 -108 -73 -116 -81 -107 -123 13
-58 121 -270 181 -353 67 -93 106 -138 229 -258 87 -86 211 -184 221 -174 3 2
-4 26 -15 53 -37 96 -81 303 -88 412 -7 126 6 237 47 410 28 114 84 280 100
292 3 3 12 21 20 40 7 19 19 42 27 51 7 8 13 19 13 24 0 9 31 34 43 35 13 0 8
-40 -5 -41 -7 -1 1 -4 17 -8 28 -6 30 -9 27 -45 -3 -40 3 -41 44 -4 21 18 21
18 22 -11 0 -25 -4 -30 -26 -33 -16 -2 -2 -7 36 -12 34 -4 62 -12 62 -18 0 -5
10 -8 22 -6 29 4 35 -19 6 -25 l-23 -4 24 -2 c14 0 32 5 40 13 25 22 65 24 69
4 2 -12 -3 -18 -15 -18 -15 0 -16 -2 -3 -10 8 -5 27 -10 42 -10 21 0 29 -6 34
-24 3 -14 3 -29 0 -34 -3 -6 2 -8 13 -5 14 3 23 -3 33 -23 14 -29 56 -41 71
-20 4 6 5 -1 1 -16 -6 -26 -4 -27 30 -26 27 1 36 5 35 17 -3 34 2 32 24 -10
13 -24 33 -48 45 -54 11 -5 31 -28 43 -52 12 -23 30 -51 41 -63 10 -11 17 -20
14 -20 -3 0 6 -12 19 -26 14 -15 25 -32 25 -39 0 -12 152 -171 202 -212 15
-12 45 -34 68 -49 22 -15 40 -30 40 -35 0 -4 10 -11 23 -14 12 -4 46 -18 75
-31 173 -78 327 -96 459 -54 122 40 308 163 401 265 106 115 242 343 346 577
21 47 30 108 15 108 -6 0 -8 10 -5 23 3 12 3 16 0 10 -8 -18 -27 -16 -21 1 4
10 1 13 -7 10 -20 -8 -27 23 -10 41 19 18 55 20 52 3 -5 -21 45 -10 64 15 29
37 80 177 70 190 -5 7 -17 33 -27 60 -10 26 -22 47 -27 47 -6 0 -24 -10 -41
-22 -87 -62 -144 -163 -125 -222 17 -54 21 -86 9 -86 -6 0 -17 -13 -26 -30
-12 -23 -12 -30 -3 -30 9 0 9 -3 -2 -10 -8 -5 -17 -5 -20 -1 -3 4 -17 10 -32
13 -21 4 -28 1 -28 -11 0 -13 -2 -13 -9 -2 -12 18 -69 7 -87 -17 -9 -12 -16
-14 -24 -6 -8 8 -7 16 5 28 15 15 15 17 -7 25 -22 8 -58 -13 -116 -66 -7 -7
-20 -13 -27 -13 -8 0 -16 -9 -20 -19 -3 -11 -15 -23 -26 -26 -10 -4 -19 -11
-19 -16 0 -6 -4 -8 -9 -5 -4 3 -17 -2 -27 -10 -17 -14 -17 -15 -1 -10 9 3 17
1 17 -4 0 -20 -49 -10 -55 10 -3 11 -13 20 -21 20 -8 0 -12 -4 -9 -10 3 -6 -5
-10 -19 -10 -14 0 -28 -4 -31 -10 -12 -19 -26 -11 -15 9 18 34 12 43 -18 27
-18 -9 -34 -11 -42 -6 -12 7 -11 10 3 16 20 7 23 26 5 23 -19 -3 -68 19 -68
31 0 5 -7 10 -16 10 -13 0 -14 3 -4 14 10 13 7 15 -17 13 -22 -2 -28 2 -27 16
2 14 -4 17 -25 15 -22 -3 -26 1 -24 20 2 16 -2 22 -17 22 -28 0 -25 30 3 31
l22 0 -22 9 c-14 6 -21 15 -17 24 3 8 1 17 -5 20 -6 4 -7 14 -4 23 4 11 3 14
-5 9 -12 -7 -16 -1 -26 47 -5 20 -3 27 9 27 13 0 12 4 -5 22 -22 24 -25 34
-10 43 6 3 10 -2 10 -11 0 -15 2 -16 13 -5 10 10 9 14 -5 22 -18 10 -14 44 9
70 12 14 12 18 1 22 -7 3 2 10 21 18 32 11 33 13 13 20 -12 5 -22 15 -22 23 0
8 -6 17 -12 20 -7 4 -4 5 8 2 27 -4 54 10 54 29 0 8 7 15 15 15 9 0 12 6 9 15
-4 8 -1 15 5 15 6 0 11 -4 11 -10 0 -5 5 -10 10 -10 6 0 10 7 10 16 0 8 4 12
10 9 6 -4 7 1 3 11 -5 14 -2 16 15 12 18 -5 22 -2 22 19 0 15 -4 22 -11 17 -8
-4 -9 3 -4 25 7 34 -7 43 -24 14 -6 -10 -10 -13 -11 -8 0 17 14 32 38 39 36
12 26 31 -14 25 -8 -1 -24 23 -24 36 0 7 3 7 8 0 9 -13 82 -17 82 -4 0 5 -13
9 -30 9 -16 0 -30 5 -30 11 0 5 4 8 9 4 5 -3 13 0 17 6 3 6 0 15 -7 20 -9 6 1
9 31 10 37 2 39 3 13 6 -60 8 -27 34 45 36 17 1 32 5 32 9 0 4 5 8 11 8 5 0 8
-3 6 -7 -3 -5 -1 -17 4 -28 7 -17 8 -18 8 -2 1 15 8 17 54 13 28 -2 57 0 62 4
13 10 55 -6 55 -22 0 -8 5 -6 11 5 12 21 47 23 55 2 4 -10 16 -13 37 -9 18 2
26 2 20 -2 -24 -11 -13 -19 29 -20 23 -1 44 -6 46 -12 1 -5 12 -8 22 -5 10 3
32 -4 47 -14 33 -23 73 -35 73 -22 0 18 -44 77 -72 95 -15 10 -31 28 -37 39
-8 16 -10 17 -10 3 -1 -18 4 -19 -86 17 -11 4 -29 7 -40 7 -11 -1 -14 1 -8 4
10 4 9 10 -3 22 -12 12 -20 13 -34 5 -13 -9 -21 -8 -35 5 -17 16 -17 16 -12 0
5 -15 1 -18 -26 -17 -24 1 -26 3 -9 6 12 2 20 8 17 13 -6 10 -154 1 -178 -11
-10 -6 -41 -12 -68 -15 l-49 -4 21 24 c19 22 28 24 77 20 39 -3 63 1 79 11 13
9 23 11 23 5 0 -6 26 -10 60 -10 37 0 64 -5 72 -13 10 -12 15 -12 26 0 10 9
25 12 44 8 24 -6 30 -3 35 13 3 12 11 23 19 26 8 3 14 12 14 20 0 9 -6 13 -14
10 -8 -3 -17 -1 -21 5 -3 7 2 11 14 11 12 0 21 7 21 15 0 17 36 21 43 5 3 -6
4 -5 3 2 -3 17 31 48 54 48 13 0 20 -7 20 -20 0 -13 7 -20 20 -20 26 0 25 7
-2 32 -16 13 -19 21 -11 24 10 4 10 9 -1 20 -19 18 -25 18 -48 -3 -25 -22 -34
-10 -11 15 10 12 24 28 32 37 7 9 16 13 20 9 3 -4 0 -9 -7 -11 -10 -4 -9 -9 4
-24 22 -25 38 -24 31 1 -4 16 0 20 19 20 14 0 27 -7 30 -15 5 -12 10 -13 20
-4 16 13 8 33 -10 26 -7 -3 -30 4 -52 14 -21 11 -30 16 -19 12 11 -3 35 -7 53
-7 19 -1 39 -8 45 -17 7 -9 19 -14 27 -11 16 6 60 52 60 65 0 4 7 7 15 7 8 0
15 6 15 13 0 7 3 8 8 2 4 -5 16 -15 27 -21 11 -6 25 -21 31 -33 6 -12 15 -25
19 -29 5 -4 5 0 0 8 -4 8 6 2 23 -14 17 -16 29 -33 26 -38 -3 -5 0 -7 8 -6 9
2 12 -6 10 -23 -1 -17 4 -29 17 -35 10 -5 42 -37 70 -71 90 -109 180 -142 297
-108 77 22 151 65 219 126 123 113 129 188 21 287 -25 23 -46 47 -46 52 0 5
29 23 64 40 182 87 318 262 377 485 27 104 32 296 8 320 -8 8 -73 31 -145 50
-172 45 -362 111 -759 262 -388 148 -553 205 -690 239 -109 26 -259 37 -345
25z"/>
<path d="M22015 32130 c-70 -33 -75 -41 -75 -111 0 -74 22 -119 69 -144 97
-50 201 29 201 152 0 44 -5 58 -31 88 -27 31 -37 35 -78 35 -25 0 -64 -9 -86
-20z"/>
<path d="M19500 31044 c0 -20 9 -67 20 -105 73 -243 266 -507 509 -693 68 -52
249 -166 264 -166 5 0 -39 34 -99 76 -190 133 -283 221 -400 377 -118 157
-199 307 -243 452 -11 36 -28 73 -36 81 -13 14 -15 11 -15 -22z"/>
<path d="M21369 30105 c-30 -29 -337 -138 -459 -162 l-45 -9 80 -10 c44 -5
163 -9 264 -9 l185 0 6 26 c4 14 10 55 14 91 7 59 5 68 -12 77 -14 7 -23 6
-33 -4z"/>
<path d="M16553 29731 c-3 -12 -14 -21 -27 -22 -17 -1 -17 -2 -3 -6 9 -2 17
-11 17 -20 0 -9 -6 -13 -15 -9 -18 7 -18 7 -3 -35 11 -34 38 -76 71 -113 9
-11 17 -26 17 -33 0 -8 5 -11 12 -7 7 5 9 2 5 -9 -4 -11 -2 -14 8 -11 7 3 16
-3 20 -15 3 -12 12 -21 18 -21 7 0 28 -15 47 -33 42 -39 107 -83 138 -92 12
-3 22 -11 22 -16 0 -6 5 -7 10 -4 6 3 10 1 10 -4 0 -6 8 -11 18 -11 9 0 31 -7
47 -16 47 -25 215 -90 265 -102 141 -36 207 -35 252 1 17 15 28 27 23 27 -4 0
-1 8 7 18 9 9 23 41 32 69 10 29 21 55 26 58 4 3 43 -59 86 -138 143 -262 143
-237 -3 -237 -139 0 -335 22 -448 51 -180 46 -432 150 -418 172 3 6 1 7 -5 3
-15 -9 -114 43 -106 55 5 8 -9 13 -28 10 -4 0 -13 9 -19 22 -13 23 -41 48 -48
41 -2 -2 7 -13 20 -24 l24 -21 -33 18 c-18 9 -31 22 -28 28 5 15 -32 38 -46
29 -6 -4 -8 -3 -5 3 9 14 -19 37 -33 28 -6 -4 -10 -3 -9 2 4 23 -2 32 -18 26
-11 -4 -14 -3 -9 5 4 7 1 15 -8 18 -9 3 -16 11 -16 16 0 14 -31 37 -49 38 -8
0 -23 7 -33 17 -15 14 -18 14 -18 1 0 -37 188 -201 328 -287 28 -18 52 -37 52
-42 0 -6 5 -7 10 -4 6 3 10 2 10 -2 0 -5 10 -9 21 -10 12 -1 27 -7 33 -14 8
-9 7 -10 -4 -4 -11 6 -12 5 -4 -4 6 -7 21 -13 32 -14 12 0 24 -7 27 -15 3 -8
12 -11 20 -8 8 3 15 1 15 -4 0 -6 9 -10 19 -10 30 0 52 -11 45 -22 -4 -6 1 -8
14 -4 11 4 23 2 27 -4 3 -5 14 -10 23 -10 9 0 29 -7 44 -14 54 -28 294 -84
366 -85 17 -1 32 -4 32 -8 0 -10 24 -11 170 -12 116 0 156 4 177 21 7 5 18 6
24 2 8 -4 9 -3 5 4 -4 7 -9 21 -11 33 -6 31 -80 180 -148 297 -53 91 -62 101
-81 95 -12 -5 -71 -7 -133 -6 -248 4 -558 133 -788 329 -81 68 -85 70 -92 45z"/>
<path d="M21700 29297 c0 -9 134 -109 200 -150 41 -25 90 -60 109 -77 19 -18
43 -36 55 -41 27 -12 90 -49 96 -58 14 -17 213 -121 232 -121 7 0 -16 19 -52
42 -36 22 -182 119 -325 214 -222 148 -315 204 -315 191z"/>
<path d="M31800 29192 c0 -4 28 -23 63 -41 137 -75 223 -144 312 -251 203
-245 339 -595 396 -1020 25 -188 43 -516 34 -652 -5 -90 -4 -108 8 -108 15 0
67 128 67 165 0 11 7 33 15 49 8 15 15 39 15 52 0 13 5 24 10 24 6 0 10 -6 10
-12 0 -9 4 -8 10 2 14 22 12 135 -5 290 -53 485 -133 753 -300 1005 -117 176
-319 356 -506 451 -65 33 -129 55 -129 46z"/>
<path d="M17806 27512 c12 -9 45 -35 74 -57 45 -35 90 -83 167 -182 88 -112
254 -439 360 -708 38 -96 203 -588 203 -605 0 -5 12 -35 26 -67 34 -75 43 -51
15 41 -11 39 -37 131 -56 204 -160 595 -481 1186 -738 1360 -50 33 -88 44 -51
14z"/>
<path d="M24720 26450 c-8 -5 -26 -11 -40 -14 -33 -7 -56 -23 -48 -32 4 -3 28
3 53 15 62 29 168 29 230 0 49 -23 49 -23 60 -158 3 -41 14 -94 25 -119 11
-24 20 -50 20 -57 0 -6 11 -22 25 -35 14 -13 25 -27 25 -30 0 -11 58 -71 112
-118 26 -22 45 -43 42 -46 -2 -3 -1 -4 2 -1 4 2 24 -11 46 -30 21 -19 43 -35
49 -35 5 0 7 -4 4 -10 -3 -5 0 -10 7 -10 8 0 29 -13 48 -30 19 -16 44 -29 54
-30 11 0 16 -3 13 -7 -4 -3 11 -14 33 -24 22 -10 40 -22 40 -28 0 -5 14 -12
30 -16 17 -4 30 -11 30 -16 0 -5 7 -9 15 -9 8 0 15 -4 15 -10 0 -5 9 -10 20
-10 11 0 20 -4 20 -9 0 -5 11 -12 25 -15 14 -4 25 -11 25 -17 0 -6 5 -7 10 -4
6 3 22 -3 36 -14 15 -12 36 -21 48 -21 17 0 19 -2 6 -11 -12 -8 -10 -9 8 -4
14 4 24 2 27 -7 3 -8 17 -15 30 -16 14 -1 35 -8 48 -16 51 -33 391 -146 439
-146 31 0 38 16 11 24 -136 39 -180 52 -248 78 -116 42 -213 84 -355 150 -97
46 -121 61 -110 70 12 8 11 9 -4 4 -11 -4 -37 5 -67 24 -27 16 -52 30 -55 30
-8 0 -183 118 -245 166 -31 23 -88 77 -127 119 -93 100 -116 155 -117 285 0
52 3 110 7 129 7 28 6 32 -9 27 -25 -10 -104 4 -96 17 4 7 0 8 -11 4 -10 -4
-27 0 -39 8 -24 17 -141 20 -167 5z"/>
<path d="M23425 8269 c-150 -23 -251 -86 -304 -189 -22 -43 -47 -144 -57 -227
-3 -35 -12 -67 -18 -71 -30 -24 -212 -43 -421 -44 -121 -1 -156 2 -181 15 -31
16 -84 92 -84 119 0 27 -20 37 -54 26 -73 -25 -95 -68 -141 -280 -45 -208
-104 -408 -210 -706 -20 -57 -35 -106 -32 -108 21 -21 1087 -377 1419 -474
528 -153 860 -221 1177 -240 306 -18 500 13 1013 159 345 98 386 106 558 105
125 0 154 -3 208 -23 35 -13 66 -21 69 -18 3 3 -17 29 -43 57 -38 41 -74 64
-159 105 -134 65 -264 106 -590 185 -272 67 -391 103 -590 180 -91 34 -131 46
-134 37 -2 -6 -17 -24 -33 -39 -43 -40 -112 -50 -321 -46 -167 3 -186 5 -226
26 -24 13 -45 21 -47 19 -2 -2 -8 -25 -13 -51 -5 -26 -13 -51 -17 -56 -19 -17
-51 -20 -70 -6 -19 14 -19 15 5 40 28 30 24 40 -13 30 -21 -5 -26 -12 -26 -35
0 -42 -31 -38 -88 14 -57 51 -62 57 -62 81 0 16 6 18 40 13 38 -5 40 -4 34 19
-4 15 -2 24 5 24 6 0 11 -7 11 -15 0 -8 10 -20 23 -26 12 -7 25 -17 29 -24 4
-7 20 -10 37 -7 23 3 31 11 36 31 13 59 -22 142 -59 141 -6 0 -24 -18 -40 -40
-33 -45 -76 -59 -126 -42 -35 13 -40 0 -15 -47 8 -16 19 -47 24 -69 17 -77
-20 -97 -200 -108 -112 -7 -254 8 -285 30 -15 12 -15 15 0 44 21 40 21 88 0
96 -13 5 -15 16 -9 61 l6 55 -28 -15 c-15 -8 -42 -15 -60 -15 -22 0 -42 -9
-63 -30 -17 -16 -40 -30 -51 -30 -11 0 -30 -12 -43 -27 -15 -17 -29 -24 -39
-20 -28 11 -20 46 15 67 30 18 33 18 39 3 5 -16 7 -15 17 4 7 12 12 24 12 27
0 12 -31 5 -72 -17 -37 -19 -48 -21 -71 -12 l-27 11 56 32 c31 18 62 32 69 32
7 0 24 9 38 20 34 27 111 59 134 56 31 -5 27 -33 -6 -41 -54 -12 -45 -25 18
-25 l60 0 6 38 c11 64 24 124 44 197 22 77 21 93 -3 47 -21 -41 -61 -66 -126
-80 -49 -11 -57 -17 -79 -55 -13 -23 -35 -56 -48 -74 -26 -34 -167 -113 -202
-113 -27 0 -27 -24 -1 -52 11 -12 20 -29 20 -37 0 -8 9 -25 21 -37 23 -25 18
-44 -11 -44 -18 0 -90 100 -90 126 0 6 -9 23 -21 38 -11 14 -17 30 -14 36 10
16 59 39 130 61 72 22 140 69 166 114 l18 30 -131 -7 -131 -7 -43 37 c-24 20
-44 42 -44 49 0 23 19 23 56 -2 40 -27 50 -29 195 -29 108 -1 105 -5 63 75
-13 26 -19 56 -23 121 -1 4 -8 5 -16 1 -20 -7 -45 -55 -45 -86 0 -34 -45 -49
-79 -28 -11 7 -4 22 33 69 25 33 58 70 73 82 15 11 35 35 46 53 19 32 85 96
100 97 5 0 -12 -38 -37 -85 l-45 -86 23 -53 c24 -54 41 -68 73 -62 69 13 100
15 112 7 23 -15 -17 -29 -92 -33 -61 -3 -66 -5 -61 -23 9 -29 9 -29 71 -15 47
12 67 24 110 65 45 46 55 63 83 150 38 119 35 140 -24 165 -52 24 -109 23
-158 -1 -22 -11 -39 -15 -43 -9 -13 21 -64 -15 -168 -118 -73 -72 -115 -122
-128 -154 -21 -47 -38 -58 -91 -58 -57 0 -27 69 86 198 72 81 123 120 243 183
l98 51 86 -4 c78 -4 90 -7 130 -36 40 -30 45 -31 56 -15 16 21 16 25 1 46 -13
16 -138 43 -222 46 -11 1 -16 4 -13 7 4 4 82 9 174 11 173 4 198 8 290 50 50
23 66 44 43 58 -5 3 -7 11 -4 18 9 25 -58 179 -100 231 -63 77 -128 108 -235
112 -47 1 -113 -1 -146 -7z"/>
<path d="M16160 8001 c-79 -24 -122 -66 -171 -164 -16 -34 -53 -94 -80 -135
-28 -41 -47 -78 -42 -82 4 -5 55 -14 113 -20 120 -12 188 -30 277 -70 71 -32
97 -66 108 -138 6 -40 16 -55 74 -112 86 -84 230 -240 242 -262 15 -28 -14
-23 -51 8 l-31 26 7 -43 c4 -24 12 -66 19 -94 8 -38 8 -59 -1 -85 -7 -19 -21
-80 -33 -134 -11 -55 -28 -110 -37 -123 -15 -23 -19 -24 -82 -18 -180 17 -264
51 -295 120 -11 22 -25 47 -32 55 -14 15 -31 70 -22 70 2 0 22 -6 44 -14 46
-16 85 -4 91 27 5 23 -68 56 -123 57 -37 0 -42 -3 -63 -44 -17 -32 -22 -52
-17 -77 4 -23 1 -44 -9 -64 -18 -34 -20 -61 -6 -70 15 -10 -18 -52 -46 -59
-14 -4 -107 3 -207 14 -480 55 -623 72 -639 76 -29 8 -20 37 18 62 32 20 37
21 57 7 12 -8 42 -15 67 -15 148 0 440 -35 555 -67 42 -11 51 -11 63 1 13 13
40 162 30 171 -2 3 -161 5 -352 5 l-347 1 -11 24 c-7 15 -16 21 -26 18 -9 -4
-24 4 -38 23 -20 24 -27 27 -41 18 -10 -6 -20 -28 -23 -50 -6 -46 -3 -44 -305
-220 -260 -150 -380 -228 -494 -320 -81 -65 -141 -140 -141 -175 0 -32 147
-86 336 -123 430 -83 790 -82 1121 4 235 61 450 161 968 450 171 95 375 204
455 243 330 158 430 209 430 219 0 7 -25 95 -56 197 -73 244 -89 321 -111 536
-15 159 -20 183 -40 203 -24 24 -77 30 -90 10 -4 -7 -16 -35 -25 -63 -10 -27
-27 -58 -37 -69 -26 -25 -103 -32 -199 -16 -105 16 -107 17 -92 35 9 11 9 22
0 49 -24 74 -78 113 -214 155 -125 38 -378 62 -446 42z m100 -296 c142 -22
258 -35 323 -35 42 0 58 -3 55 -12 -8 -25 -146 -21 -433 12 -193 21 -256 32
-252 43 9 27 108 24 307 -8z m-70 -76 c100 -13 388 -40 423 -39 44 1 31 -16
-23 -28 -73 -17 -120 -39 -120 -56 0 -9 6 -14 13 -12 6 1 9 1 5 -1 -28 -16 3
-65 180 -275 53 -63 127 -187 138 -232 11 -46 -14 -28 -77 55 -31 41 -83 99
-116 129 -32 30 -82 76 -110 102 -28 27 -62 52 -75 57 -18 7 -28 26 -46 82
-12 41 -31 85 -42 99 -11 14 -20 30 -20 36 0 6 -51 21 -112 33 -62 13 -128 29
-147 37 -18 8 -49 14 -69 14 -19 0 -32 3 -29 7 4 3 2 11 -3 18 -7 8 12 8 73
-2 45 -8 116 -18 157 -24z m465 -130 c51 -24 108 -44 145 -49 59 -8 78 -15 69
-24 -2 -2 -69 -9 -147 -16 -79 -6 -151 -14 -159 -17 -13 -5 -13 -3 -4 15 13
25 41 41 59 35 23 -9 2 22 -28 39 -18 10 -30 25 -30 38 0 11 3 20 6 20 3 0 43
-18 89 -41z"/>
<path d="M23755 7610 c-3 -6 -26 -49 -51 -96 -30 -59 -39 -84 -28 -80 8 3 17
6 19 6 3 0 9 18 15 40 6 22 16 40 23 40 7 0 28 -16 47 -35 30 -31 84 -54 97
-42 8 9 -39 66 -70 86 -21 13 -25 20 -15 24 8 3 35 -8 60 -23 29 -18 57 -28
79 -27 33 2 34 1 43 -45 11 -59 4 -69 -29 -38 -14 13 -27 21 -30 18 -3 -2 11
-19 30 -37 19 -17 41 -47 49 -66 l15 -35 30 18 c54 30 42 104 -30 187 -25 28
-49 40 -118 61 -47 15 -93 33 -102 40 -19 17 -26 17 -34 4z"/>
<path d="M15918 7521 c-31 -5 -35 -8 -25 -22 7 -9 22 -21 34 -28 13 -7 20 -17
17 -26 -9 -22 38 -58 102 -79 84 -26 84 -26 84 -16 0 6 6 10 13 10 8 0 12 11
11 28 -2 37 4 44 27 31 27 -14 34 -6 18 20 -17 26 -4 39 22 22 12 -7 23 -10
26 -7 8 8 -80 44 -147 62 -55 14 -116 16 -182 5z"/>
<path d="M15715 7440 c-28 -18 -258 -251 -252 -256 1 -1 22 2 47 7 25 6 67 13
95 16 45 5 47 7 25 16 -14 5 -36 10 -50 9 -16 0 -19 1 -7 4 9 3 17 12 17 20 0
20 65 49 144 63 37 6 75 18 82 26 28 27 8 99 -30 109 -32 9 -39 7 -71 -14z"/>
<path d="M23826 7388 c4 -7 21 -29 36 -49 37 -46 58 -124 58 -216 l0 -73 35 0
c31 0 35 2 30 23 -47 214 -72 286 -111 312 -29 18 -58 20 -48 3z"/>
<path d="M23676 7314 c-9 -8 -20 -24 -26 -34 -15 -28 -60 -209 -60 -242 0 -28
2 -30 28 -25 15 3 54 15 86 26 33 12 61 19 64 17 9 -10 -10 -25 -38 -31 -17
-4 -30 -11 -30 -16 0 -10 20 -11 71 -3 29 5 37 11 37 28 0 11 5 49 13 83 16
78 4 125 -46 176 -39 40 -73 47 -99 21z"/>
<path d="M15685 7241 c-69 -6 -69 -6 -30 -15 22 -5 74 -8 116 -8 68 1 77 -1
82 -18 9 -37 -13 -41 -218 -40 l-196 2 -96 -94 c-88 -86 -134 -149 -132 -180
0 -7 4 -3 9 10 5 12 16 22 25 22 21 0 19 -18 -2 -23 -36 -8 298 -18 492 -15
l200 3 3 23 c5 32 -16 80 -41 93 -13 7 -103 10 -261 8 l-241 -3 -42 -42 c-40
-39 -43 -41 -43 -18 0 17 14 34 51 61 28 20 60 50 70 67 l18 29 153 -3 c84 -1
169 -3 188 -4 29 -1 36 3 38 22 3 19 9 23 40 22 4 0 7 -10 7 -21 0 -12 11 -28
23 -37 l24 -16 -17 40 c-10 21 -21 53 -25 69 -4 17 -12 40 -19 53 -13 24 -27
25 -176 13z"/>
<path d="M16373 7236 c4 -10 10 -29 13 -42 3 -13 9 -24 13 -24 19 0 110 -169
125 -232 11 -46 -10 -32 -29 20 -10 26 -23 54 -30 62 -7 8 -23 35 -36 59 -48
89 -45 90 -58 -21 -13 -115 -5 -160 32 -193 12 -11 28 -33 36 -50 7 -16 30
-53 52 -81 21 -28 39 -54 39 -59 0 -8 -74 -2 -100 9 -21 8 -42 -7 -35 -25 11
-29 154 -63 156 -37 9 105 6 120 -28 151 -26 24 -33 38 -31 61 5 46 24 42 37
-9 18 -71 31 -54 31 40 0 100 -15 178 -42 223 -27 44 -101 130 -129 150 -21
14 -22 14 -16 -2z"/>
<path d="M24364 7009 c-45 -5 -99 -12 -120 -17 -37 -8 -39 -10 -40 -47 0 -22
1 -44 3 -50 3 -9 266 -13 486 -7 73 2 77 3 77 25 0 24 -50 64 -114 91 -42 18
-152 20 -292 5z"/>
<path d="M23612 6963 c-34 -3 -45 -9 -54 -29 -6 -13 -15 -24 -20 -24 -4 0 -8
-4 -8 -9 0 -6 62 -7 156 -4 l157 6 -7 -26 c-3 -14 -1 -29 4 -32 14 -9 3 -25
-17 -25 -13 0 -13 2 -2 17 13 15 10 16 -41 10 -30 -4 -106 -7 -167 -7 l-113 0
0 -25 c0 -30 -6 -29 217 -30 157 0 162 1 158 20 -6 24 -25 147 -25 158 0 7
-156 7 -238 0z"/>
<path d="M21891 6742 c-1 -12 -358 -13 -2147 -6 l-2147 7 7 -29 c4 -16 10 -65
13 -110 4 -63 2 -87 -11 -112 -23 -44 -104 -103 -248 -178 -68 -36 -109 -62
-93 -58 17 3 660 8 1430 10 2679 7 3105 10 3116 21 8 8 8 13 0 17 -6 4 -11 22
-11 40 0 70 59 307 90 366 6 12 9 26 6 33 -3 8 -5 8 -5 -1z"/>
<path d="M16860 6093 c-29 -11 -434 -184 -484 -207 -28 -13 -66 -29 -83 -36
-18 -7 -33 -16 -33 -20 0 -4 -12 -10 -27 -13 -33 -8 -60 -24 -52 -32 3 -3 19
1 35 10 16 8 33 15 37 15 5 0 140 59 301 130 161 72 298 130 303 130 6 0 16 7
23 15 13 15 7 18 -20 8z"/>
<path d="M22690 6021 c0 -5 44 -18 98 -30 53 -13 144 -34 202 -47 202 -48 226
-54 390 -89 807 -176 1407 -221 2325 -174 328 16 781 67 763 85 -2 2 -31 -1
-64 -6 -99 -17 -504 -49 -769 -61 -152 -7 -408 -10 -655 -6 -347 4 -439 9
-640 31 -356 40 -717 103 -1195 209 -153 34 -383 83 -422 91 -18 3 -33 2 -33
-3z"/>
</g>
</svg>
